<svg width="24" height="28" viewBox="0 0 24 28" fill="none" xmlns="http://www.w3.org/2000/svg">
<g clip-path="url(#clip0_278_880)">
<path d="M18.8077 14.7635C18.8196 13.8435 19.0641 12.9414 19.5184 12.1413C19.9726 11.3411 20.6218 10.6689 21.4057 10.187C20.9075 9.47575 20.2503 8.89051 19.4863 8.47779C18.7223 8.06507 17.8726 7.83624 17.0047 7.8095C15.1552 7.6145 13.3597 8.9165 12.4177 8.9165C11.4562 8.9165 10.0027 7.8275 8.43967 7.8605C7.42883 7.8933 6.44371 8.18726 5.58021 8.71378C4.7167 9.24029 4.00424 9.98141 3.51217 10.865C1.38067 14.555 2.97067 19.979 5.01217 22.9625C6.03367 24.4235 7.22767 26.0555 8.78917 25.997C10.3192 25.934 10.8892 25.022 12.7342 25.022C14.5642 25.022 15.0982 25.997 16.6927 25.9595C18.3337 25.934 19.3672 24.4925 20.3527 23.0195C21.0862 21.977 21.6517 20.828 22.0252 19.61C21.0721 19.2071 20.2588 18.5325 19.6866 17.6703C19.1145 16.8082 18.8088 15.7982 18.8077 14.7635ZM15.7987 5.8475C16.6932 4.77373 17.1339 3.3935 17.0272 2C15.6604 2.1436 14.398 2.79703 13.4917 3.83C13.0485 4.33446 12.7091 4.92134 12.4929 5.55708C12.2767 6.19281 12.1879 6.86493 12.2317 7.535C12.9151 7.54186 13.5913 7.39356 14.2091 7.10126C14.827 6.80896 15.3705 6.38028 15.7987 5.8475Z" fill="#05073D"/>
</g>
<defs>
<clipPath id="clip0_278_880">
<rect width="21" height="24" fill="white" transform="translate(2.5 2)"/>
</clipPath>
</defs>
</svg>
