<svg width="25" height="26" viewBox="0 0 25 26" fill="none" xmlns="http://www.w3.org/2000/svg">
<path fill-rule="evenodd" clip-rule="evenodd" d="M13.522 6.52478C14.1476 6.16899 14.5695 5.49642 14.5695 4.7253C14.5695 3.5828 13.6433 2.65662 12.5008 2.65662C11.3583 2.65662 10.4321 3.5828 10.4321 4.7253C10.4321 5.49815 10.8559 6.17202 11.4838 6.52717L11.4745 6.54605C10.7963 7.95959 9.8553 9.98464 8.40134 10.7449C7.20846 11.3686 5.49447 11.0549 4.22229 10.8221C4.16622 10.0162 3.4947 9.37984 2.67456 9.37984C1.81768 9.37984 1.12305 10.0745 1.12305 10.9314C1.12305 11.6913 1.66935 12.3236 2.39062 12.4569L5.43899 20.3269C5.90176 21.5217 7.05128 22.3091 8.33253 22.3091H16.6691C17.9503 22.3091 19.0998 21.5217 19.5627 20.3269L22.611 12.4569C23.3322 12.3236 23.8786 11.6913 23.8786 10.9314C23.8786 10.0745 23.1839 9.37984 22.3271 9.37984C21.5227 9.37984 20.8612 9.99201 20.7832 10.7759C19.4809 10.9448 17.8019 11.1603 16.6003 10.5319C15.1755 9.78697 14.2213 7.90151 13.522 6.52478ZM12.5271 8.97363C13.3212 10.2619 14.2733 11.6496 15.6417 12.3652C17.015 13.0832 19.2729 12.5862 20.7832 12.4569L17.6336 19.5797C17.4793 19.9779 17.0962 20.2404 16.6691 20.2404H8.33253C7.90544 20.2404 7.52227 19.9779 7.36801 19.5797L4.82263 13.0083C6.31118 13.1982 7.99516 13.2916 9.35989 12.5781C10.7843 11.8333 11.7385 10.3319 12.5271 8.97363Z" fill="#FFD166"/>
</svg>
