<svg width="19" height="18" viewBox="0 0 19 18" fill="none" xmlns="http://www.w3.org/2000/svg">
<path d="M3.69445 11.0675H15.3056V10.0135H3.69445V11.0675ZM3.69445 7.90537H15.3056V6.85132H3.69445V7.90537ZM3.69445 4.74322H15.3056V3.68917H3.69445V4.74322ZM19 18L15.7521 14.7567H1.70578C1.21952 14.7567 0.813484 14.5944 0.487669 14.2697C0.161854 13.9451 -0.000701429 13.54 2.27491e-06 13.0544V1.70229C2.27491e-06 1.21743 0.16291 0.812323 0.488724 0.486973C0.814539 0.161623 1.21987 -0.000700428 1.70472 2.27166e-06H17.2953C17.7808 2.27166e-06 18.1862 0.162326 18.5113 0.486973C18.8364 0.81162 18.9993 1.21673 19 1.70229V18ZM1.70578 13.7026H16.2028L17.9444 15.4355V1.70335C17.9444 1.54102 17.8769 1.39205 17.7418 1.25643C17.6067 1.12081 17.4578 1.05335 17.2953 1.05405H1.70472C1.54287 1.05405 1.39404 1.12151 1.25822 1.25643C1.12241 1.39135 1.05485 1.53997 1.05556 1.70229V13.0544C1.05556 13.216 1.12311 13.3646 1.25822 13.5003C1.39334 13.6359 1.54217 13.7033 1.70472 13.7026" fill="#7D7D7D"/>
</svg>
