<svg width="41" height="22" viewBox="0 0 41 22" fill="none" xmlns="http://www.w3.org/2000/svg">
<path d="M30.9044 22C26.9863 22 23.8097 18.8318 23.8097 14.9222C23.8097 12.0547 25.5231 9.59084 27.9807 8.4791L27.0375 6.36048L27.191 6.73075L20.7316 15.3806V17.115H21.6776V18.0597H18.8386V17.115H19.7856V16.1703L17.1094 15.9198C16.622 19.3543 13.6713 21.9991 10.0938 21.9991C6.17573 22 3 18.8318 3 14.9222C3 11.0135 6.17573 7.84528 10.0947 7.84528C11.1189 7.84528 12.09 8.06614 12.969 8.45497L14.742 4.01173L13.9374 1.76969C13.5839 1.76969 13.2546 1.76969 12.9914 1.76969C12.1039 1.76969 12.3411 0.825917 12.3411 0.825917C12.3411 0.825917 12.3998 0 13.0509 0C13.702 0 13.7011 0.590206 14.7653 0.590206C15.7838 0.590206 17.248 0.88438 17.248 0.88438C17.248 0.88438 17.8982 1.76876 16.6573 1.76876C16.0955 1.76876 15.4769 1.76876 14.8834 1.76876L15.5559 4.17877H25.8366L25.0292 2.34783H24.4013V1.40499H28.1844V2.34876H26.0468L28.8161 8.15801C29.4765 7.95478 30.1788 7.84528 30.9053 7.84528C34.8233 7.84528 38 11.0135 38 14.9222C37.9991 18.8318 34.8224 22 30.9044 22ZM10.0947 8.78812C6.69851 8.78812 3.94602 11.5341 3.94602 14.9222C3.94602 18.3103 6.69851 21.0553 10.0947 21.0553C13.1821 21.0553 15.7318 18.7826 16.169 15.8223L11.2444 15.3166C11.1663 15.7592 10.797 16.1017 10.331 16.1017C9.80819 16.1017 9.38495 15.6794 9.38495 15.157C9.38495 14.6364 9.80819 14.2123 10.331 14.2123C10.4426 14.2123 10.5468 14.241 10.6463 14.2772L12.6193 9.331C11.8481 8.98578 10.9951 8.78812 10.0947 8.78812ZM11.5133 14.5092L16.2378 15.0076C16.2387 14.9788 16.2424 14.9509 16.2424 14.9222C16.2424 12.7414 15.0992 10.8316 13.3802 9.74303L11.5133 14.5092ZM15.1643 5.18935L13.729 8.85308C15.7987 10.0892 17.1885 12.3414 17.1885 14.9231C17.1885 14.9843 17.181 15.0465 17.1792 15.1078L18.7847 15.2767L15.1643 5.18935ZM26.2347 4.55275V5.12254H15.8908L19.6582 15.1811L26.8087 5.84081L26.2347 4.55275ZM30.9044 8.78812C30.3118 8.78812 29.7407 8.87628 29.1984 9.03311L31.4067 14.0666C31.855 14.1389 32.2048 14.512 32.2048 14.9797C32.2048 15.5012 31.7816 15.9244 31.2588 15.9244C30.736 15.9244 30.3118 15.5022 30.3118 14.9797C30.3118 14.7264 30.4151 14.4962 30.5807 14.3255L28.363 9.34028C26.2357 10.3054 24.7548 12.4379 24.7548 14.9212C24.7548 18.3084 27.5073 21.0544 30.9025 21.0544C34.2978 21.0544 37.0503 18.3084 37.0503 14.9212C37.0503 11.5341 34.2996 8.78812 30.9044 8.78812Z" fill="#FFD166"/>
</svg>
