<svg width="29" height="28" viewBox="0 0 29 28" fill="none" xmlns="http://www.w3.org/2000/svg">
<g clip-path="url(#clip0_277_807)">
<path d="M26.5 14.3471C26.4996 12.0539 25.8422 9.80881 24.6056 7.87766C23.3689 5.9465 21.6048 4.41012 19.5221 3.4504C17.4394 2.49068 15.1254 2.14781 12.8538 2.46239C10.5823 2.77697 8.44854 3.73581 6.70505 5.22541C4.96156 6.71502 3.68139 8.67299 3.0161 10.8675C2.35081 13.0621 2.32826 15.4013 2.95112 17.6083C3.57398 19.8153 4.81616 21.7976 6.53061 23.3205C8.24506 24.8434 10.36 25.8432 12.625 26.2016V17.8166H9.5785V14.3486H12.625V11.7041C12.625 8.69656 14.416 7.03606 17.158 7.03606C18.4705 7.03606 19.843 7.27006 19.843 7.27006V10.2221H18.331C16.84 10.2221 16.375 11.1461 16.375 12.0956V14.3471H19.7035L19.171 17.8166H16.375V26.2016C19.1973 25.7545 21.7676 24.3151 23.6236 22.1424C25.4795 19.9697 26.4995 17.2061 26.5 14.3486V14.3471Z" fill="#1877F2"/>
</g>
<defs>
<clipPath id="clip0_277_807">
<rect width="24" height="24" fill="white" transform="translate(2.5 2.34705)"/>
</clipPath>
</defs>
</svg>
