<svg width="25" height="24" viewBox="0 0 25 24" fill="none" xmlns="http://www.w3.org/2000/svg">
<g clip-path="url(#clip0_928_551)">
<path fill-rule="evenodd" clip-rule="evenodd" d="M12.4998 4.6395C14.7528 4.6395 16.2738 5.6145 17.1408 6.426L20.5248 3.12C18.4473 1.1865 15.7413 8.13847e-07 12.5013 8.13847e-07C10.2765 -0.000818721 8.09538 0.617324 6.20184 1.78529C4.30829 2.95326 2.77702 4.62499 1.7793 6.6135L5.6598 9.627C6.6348 6.732 9.3273 4.6395 12.4998 4.6395Z" fill="#EA4335"/>
<path fill-rule="evenodd" clip-rule="evenodd" d="M24.02 12.267C24.02 11.28 23.9405 10.56 23.7665 9.81299H12.5V14.2665H19.1135C18.98 15.3735 18.26 17.04 16.6595 18.159L20.447 21.093C22.712 18.999 24.02 15.9195 24.02 12.267Z" fill="#4285F4"/>
<path fill-rule="evenodd" clip-rule="evenodd" d="M5.6735 14.3745C5.41103 13.6102 5.27573 12.8081 5.273 12C5.273 11.175 5.42 10.374 5.66 9.62699L1.7795 6.61499C0.939572 8.2859 0.501439 10.1299 0.5 12C0.5 13.935 0.9665 15.7605 1.7795 17.3865L5.675 14.3745H5.6735Z" fill="#FBBC05"/>
<path fill-rule="evenodd" clip-rule="evenodd" d="M12.5 24C15.74 24 18.458 22.9335 20.4455 21.093L16.658 18.1605C15.6455 18.8655 14.285 19.3605 12.4985 19.3605C9.326 19.3605 6.632 17.2665 5.672 14.373L1.7915 17.3865C3.7655 21.306 7.8065 24 12.5 24Z" fill="#34A853"/>
</g>
<defs>
<clipPath id="clip0_928_551">
<rect width="24" height="24" fill="white" transform="translate(0.5)"/>
</clipPath>
</defs>
</svg>
