<svg width="43" height="42" viewBox="0 0 43 42" fill="none" xmlns="http://www.w3.org/2000/svg">
<path d="M40.5593 7.55946L35.1886 2.24542C32.8114 -0.0948593 28.9513 -0.110663 26.5689 2.21908L20.6096 8.03226C18.2232 10.3607 18.2126 14.1536 20.5832 16.4926L23.9889 13.2212C23.6439 12.1794 24.0693 10.9863 24.9121 10.1605L28.7037 6.46373C29.9048 5.2982 31.8316 5.30347 33.0169 6.4769L36.2422 9.66401C37.4275 10.8374 37.4222 12.7273 36.229 13.8955L32.4374 17.5949C31.6354 18.3772 30.3184 18.8065 29.2964 18.5313L25.9605 21.8053C28.335 24.1509 32.1924 24.1614 34.5801 21.8316L40.5329 16.0237C42.9259 13.6913 42.9338 9.90238 40.5593 7.55946Z" fill="#FC673C"/>
<path d="M18.7394 28.8341C19.0225 29.8521 18.5695 31.1691 17.749 31.9698L14.2076 35.4295C12.9934 36.6148 11.0284 36.6082 9.81944 35.4137L6.52961 32.1726C5.32325 30.9794 5.33115 29.0395 6.54541 27.8595L10.0894 24.3998C10.9534 23.5609 12.194 23.1342 13.2765 23.4924L16.6928 20.1077C14.2748 17.7227 10.3396 17.7108 7.91113 20.0814L2.16512 25.6917C-0.266039 28.0663 -0.277892 31.9263 2.13878 34.3167L7.60954 39.7255C10.0249 42.108 13.9574 42.1198 16.3912 39.7492L22.1372 34.1389C24.5657 31.7617 24.5763 27.9043 22.1635 25.5166L18.7394 28.8341Z" fill="#FC673C"/>
<path d="M15.0052 27.2906C15.8099 28.1031 17.1269 28.111 17.9474 27.3011L27.7655 17.5343C28.5833 16.7217 28.5886 15.4074 27.776 14.5922C26.9687 13.7822 25.6544 13.777 24.8391 14.5843L15.0184 24.3484C14.2019 25.1584 14.1966 26.4727 15.0052 27.2906Z" fill="#FC673C"/>
</svg>
