<svg width="34" height="22" viewBox="0 0 34 22" fill="none" xmlns="http://www.w3.org/2000/svg">
<path d="M11.24 2.09143C11.3903 1.7672 11.6387 1.49114 11.9546 1.29723C12.2704 1.10331 12.64 1 13.0178 1C13.3956 1 13.7651 1.10331 14.081 1.29723C14.3969 1.49114 14.6452 1.7672 14.7956 2.09143L19.7733 11.2879L22.3333 5.86649C22.4789 5.58533 22.7062 5.3482 22.9892 5.18228C23.2722 5.01637 23.5994 4.92837 23.9333 4.92837C24.2673 4.92837 24.5945 5.01637 24.8775 5.18228C25.1605 5.3482 25.3878 5.58533 25.5333 5.86649L33 21H1L11.24 2.09143Z" stroke="black" stroke-linecap="round" stroke-linejoin="round"/>
</svg>
