<svg width="32" height="32" viewBox="0 0 32 32" fill="none" xmlns="http://www.w3.org/2000/svg">
<path d="M15.8364 9.10007C14.4417 9.10007 13.0783 9.51365 11.9186 10.2885C10.759 11.0634 9.85515 12.1647 9.32142 13.4532C8.7877 14.7418 8.64805 16.1596 8.92014 17.5275C9.19223 18.8954 9.86385 20.1519 10.85 21.1381C11.8363 22.1243 13.0928 22.796 14.4607 23.068C15.8286 23.3401 17.2464 23.2005 18.535 22.6668C19.8235 22.133 20.9248 21.2292 21.6997 20.0695C22.4745 18.9099 22.8881 17.5465 22.8881 16.1518C22.8862 14.2822 22.1426 12.4897 20.8206 11.1676C19.4985 9.84559 17.706 9.10202 15.8364 9.10007ZM15.8364 20.853C14.9066 20.853 13.9977 20.5772 13.2246 20.0607C12.4515 19.5441 11.8489 18.8099 11.4931 17.9509C11.1373 17.0918 11.0442 16.1466 11.2256 15.2347C11.4069 14.3227 11.8547 13.4851 12.5122 12.8276C13.1696 12.1701 14.0073 11.7224 14.9192 11.541C15.8312 11.3596 16.7764 11.4527 17.6354 11.8085C18.4945 12.1643 19.2287 12.7669 19.7452 13.54C20.2618 14.3131 20.5375 15.222 20.5375 16.1518C20.5375 17.3986 20.0422 18.5944 19.1606 19.476C18.279 20.3577 17.0832 20.853 15.8364 20.853ZM22.8881 0.873047H8.78464C6.60342 0.87538 4.5122 1.7429 2.96983 3.28526C1.42747 4.82763 0.55995 6.91885 0.557617 9.10007V23.2035C0.55995 25.3848 1.42747 27.476 2.96983 29.0184C4.5122 30.5607 6.60342 31.4282 8.78464 31.4306H22.8881C25.0693 31.4282 27.1606 30.5607 28.7029 29.0184C30.2453 27.476 31.1128 25.3848 31.1151 23.2035V9.10007C31.1128 6.91885 30.2453 4.82763 28.7029 3.28526C27.1606 1.7429 25.0693 0.87538 22.8881 0.873047ZM28.7646 23.2035C28.7646 24.7621 28.1454 26.2568 27.0434 27.3588C25.9413 28.4609 24.4466 29.08 22.8881 29.08H8.78464C7.22611 29.08 5.73142 28.4609 4.62937 27.3588C3.52732 26.2568 2.9082 24.7621 2.9082 23.2035V9.10007C2.9082 7.54154 3.52732 6.04684 4.62937 4.9448C5.73142 3.84275 7.22611 3.22363 8.78464 3.22363H22.8881C24.4466 3.22363 25.9413 3.84275 27.0434 4.9448C28.1454 6.04684 28.7646 7.54154 28.7646 9.10007V23.2035ZM25.2387 8.51243C25.2387 8.8611 25.1353 9.20195 24.9416 9.49186C24.7479 9.78177 24.4725 10.0077 24.1504 10.1412C23.8283 10.2746 23.4738 10.3095 23.1318 10.2415C22.7899 10.1735 22.4757 10.0056 22.2292 9.75901C21.9826 9.51246 21.8147 9.19834 21.7467 8.85636C21.6787 8.51438 21.7136 8.15992 21.847 7.83778C21.9805 7.51565 22.2064 7.24031 22.4963 7.0466C22.7862 6.85289 23.1271 6.74949 23.4758 6.74949C23.9433 6.74949 24.3917 6.93523 24.7223 7.26584C25.053 7.59646 25.2387 8.04487 25.2387 8.51243Z" fill="#05073D"/>
</svg>
