<svg width="32" height="24" viewBox="0 0 32 24" fill="none" xmlns="http://www.w3.org/2000/svg">
<path d="M6.68532 9.06037C6.68532 8.29891 7.30515 7.68038 8.0682 7.68038C8.83126 7.68038 9.45108 8.29891 9.45108 9.06037C9.45108 9.15648 9.47578 9.24273 9.51529 9.32405C9.70296 10.5537 10.7673 11.5 12.0489 11.5C13.3306 11.5 14.4813 10.4798 14.6048 9.18112C14.6122 9.1417 14.6171 9.10227 14.6171 9.06037C14.6171 8.29891 15.2369 7.68038 16 7.68038C16.7631 7.68038 17.3829 8.29891 17.3829 9.06037C17.3829 9.15648 17.4076 9.24273 17.4471 9.32405C17.6348 10.5537 18.6991 11.5 19.9807 11.5C21.2623 11.5 22.4131 10.4798 22.5366 9.18112C22.544 9.1417 22.5489 9.10227 22.5489 9.06037C22.5489 8.29891 23.1687 7.68038 23.9318 7.68038C24.6948 7.68038 25.3147 8.29891 25.3147 9.06037C25.3147 9.38566 25.5789 9.6518 25.9073 9.6518C26.2358 9.6518 26.5 9.38812 26.5 9.06037C26.5 7.64835 25.3492 6.5 23.9318 6.5C22.5983 6.5 21.4994 7.52021 21.3759 8.81888C21.3685 8.8583 21.3636 8.89773 21.3636 8.93963C21.3636 9.70108 20.7438 10.3196 19.9807 10.3196C19.2177 10.3196 18.5978 9.70108 18.5978 8.93963C18.5978 8.84598 18.5731 8.75727 18.5336 8.67595C18.346 7.44628 17.2816 6.5 16 6.5C14.7184 6.5 13.5676 7.52021 13.4441 8.81888C13.4367 8.8583 13.4318 8.89773 13.4318 8.93963C13.4318 9.70108 12.812 10.3196 12.0489 10.3196C11.2859 10.3196 10.666 9.70108 10.666 8.93963C10.666 8.84598 10.6413 8.75727 10.6018 8.67595C10.4142 7.44628 9.34984 6.5 8.0682 6.5C6.65322 6.5 5.5 7.64835 5.5 9.06037C5.5 9.38812 5.76423 9.6518 6.09266 9.6518C6.11736 9.6518 6.14205 9.64687 6.16428 9.64441C6.45567 9.60744 6.68286 9.36348 6.68286 9.06037H6.68532Z" fill="#05073D"/>
<path d="M23.9315 12.5C22.5978 12.5 21.4988 13.5197 21.3753 14.8177C21.3679 14.8571 21.363 14.8966 21.363 14.9384C21.363 15.6995 20.7431 16.3177 19.9799 16.3177C19.2168 16.3177 18.5969 15.6995 18.5969 14.9384C18.5969 14.8448 18.5722 14.7562 18.5327 14.6749C18.345 13.4458 17.2805 12.5 15.9988 12.5C14.717 12.5 13.5661 13.5197 13.4426 14.8177C13.4352 14.8571 13.4303 14.8966 13.4303 14.9384C13.4303 15.6995 12.8104 16.3177 12.0472 16.3177C11.2841 16.3177 10.6642 15.6995 10.6642 14.9384C10.6642 14.8448 10.6395 14.7562 10.6 14.6749C10.4123 13.4458 9.34782 12.5 8.06604 12.5C7.3103 12.5 6.6336 12.8276 6.16435 13.3473C5.75191 13.8005 5.5 14.4015 5.5 15.0616C5.5 15.3892 5.76426 15.6527 6.09273 15.6527C6.11743 15.6527 6.14213 15.6478 6.16435 15.6453C6.45578 15.6084 6.68299 15.3621 6.68299 15.0616C6.68299 14.3005 7.30289 13.6823 8.06604 13.6823C8.82918 13.6823 9.44908 14.3005 9.44908 15.0616C9.44908 15.1576 9.47377 15.2438 9.51329 15.3251C9.70099 16.5542 10.7654 17.5 12.0472 17.5C13.329 17.5 14.4799 16.4803 14.6034 15.1823C14.6108 15.1429 14.6157 15.1034 14.6157 15.0616C14.6157 14.3005 15.2356 13.6823 15.9988 13.6823C16.7619 13.6823 17.3818 14.3005 17.3818 15.0616C17.3818 15.1576 17.4065 15.2438 17.446 15.3251C17.6337 16.5542 18.6982 17.5 19.9799 17.5C21.2617 17.5 22.4126 16.4803 22.5361 15.1823C22.5435 15.1429 22.5485 15.1034 22.5485 15.0616C22.5485 14.3005 23.1684 13.6823 23.9315 13.6823C24.6946 13.6823 25.3145 14.3005 25.3145 15.0616C25.3145 15.3892 25.5788 15.6527 25.9073 15.6527C26.2357 15.6527 26.5 15.3892 26.5 15.0616C26.5 14.4409 26.2777 13.8719 25.9073 13.4286C25.4356 12.8621 24.7267 12.5025 23.9315 12.5025V12.5Z" fill="#05073D"/>
</svg>
