<svg width="20" height="20" viewBox="0 0 20 20" fill="none" xmlns="http://www.w3.org/2000/svg">
<path fill-rule="evenodd" clip-rule="evenodd" d="M2.32083 3.55228C1.54093 4.54475 1.06838 5.90073 1.06838 7.31638C1.06838 10.4899 3.18627 13.1538 5.42249 15.071C6.52965 16.0202 7.63942 16.7633 8.47356 17.2694C8.89001 17.5221 9.23633 17.7148 9.47719 17.8437C9.52521 17.8694 9.56902 17.8926 9.60833 17.9131C9.64866 17.8909 9.6937 17.8658 9.74322 17.8379C9.98467 17.7017 10.3316 17.499 10.7488 17.2351C11.5842 16.7066 12.6957 15.9365 13.8047 14.9685C16.049 13.0096 18.1624 10.3462 18.1624 7.31638C18.1624 5.90094 17.6899 4.54496 16.91 3.55244C16.1327 2.56318 15.0713 1.95607 13.8722 1.95607C12.2147 1.95607 10.9292 3.03556 10.0949 4.73481L9.61539 5.71147L9.1359 4.73481C8.30155 3.03545 7.01597 1.95607 5.35855 1.95607C4.15962 1.95607 3.09813 2.56307 2.32083 3.55228ZM9.61539 18.5159C9.38365 18.9972 9.38328 18.997 9.38328 18.997L9.38088 18.9959L9.37479 18.9929L9.35294 18.9822C9.33413 18.9729 9.307 18.9594 9.27206 18.9417C9.20214 18.9063 9.10102 18.8541 8.97313 18.7857C8.71741 18.6489 8.35422 18.4467 7.91934 18.1828C7.05075 17.6558 5.89022 16.8793 4.72708 15.8821C2.4227 13.9064 0 10.9706 0 7.31638C0 5.67359 0.545529 4.08235 1.48078 2.89218C2.41859 1.69872 3.76928 0.887695 5.35855 0.887695C7.23013 0.887695 8.65337 1.9365 9.61539 3.41643C10.5774 1.93657 12.0006 0.887695 13.8722 0.887695C15.4616 0.887695 16.8123 1.69886 17.7501 2.89234C18.6853 4.08262 19.2308 5.67386 19.2308 7.31638C19.2308 10.8327 16.8036 13.7691 14.5073 15.7734C13.3459 16.787 12.1872 17.5893 11.3199 18.138C10.8857 18.4126 10.5231 18.6246 10.268 18.7685C10.1404 18.8404 10.0395 18.8954 9.96987 18.9328C9.9351 18.9515 9.90807 18.9657 9.88937 18.9755L9.86773 18.9868L9.8617 18.9899L9.85994 18.9908L9.85935 18.9911C9.85935 18.9911 9.85897 18.9913 9.61539 18.5159ZM9.61539 18.5159L9.85935 18.9911L9.62281 19.1123L9.38328 18.997L9.61539 18.5159Z" fill="#7D7D7D"/>
</svg>
