<svg width="34" height="33" viewBox="0 0 34 33" fill="none" xmlns="http://www.w3.org/2000/svg">
<path d="M25.1917 9.54883L25.1995 9.5498H25.2073L25.594 9.57422C25.7231 9.58387 25.8549 9.59741 25.9846 9.61328L25.9856 9.6123C28.1986 9.85199 30.0203 10.713 31.2805 12.2119C32.5345 13.7036 33.1496 15.7287 33.1497 18.1455V32.3037H25.0188V19.5576C25.0188 19.4592 25.0015 18.7657 24.6487 18.125C24.4795 17.8178 24.2387 17.5336 23.8889 17.3223C23.5403 17.1118 23.034 16.9444 22.2874 16.9443C21.3655 16.9444 20.624 17.341 20.2112 18.084C19.6567 19.1031 19.7317 20.2871 19.7317 21.7793V32.2158H11.6008V10.1074H19.4524V11.4521C20.5922 10.507 22.3596 9.53518 24.8235 9.54102L25.1917 9.54883ZM9.49243 32.1572H1.36157V10.0488H9.49243V32.1572ZM24.8274 11.2871C21.8423 11.2787 20.1565 13.0553 19.5491 13.8398C19.4663 13.9483 19.4077 14.0322 19.3713 14.0859C19.3529 14.1132 19.3403 14.1334 19.3333 14.1445L19.3284 14.1514L17.7063 16.8545V11.8535H13.3469V30.4697H17.9856V21.7793C17.9856 20.5082 17.8566 18.7514 18.6819 17.2412L18.6838 17.2354L19.4475 17.6602L18.6848 17.2354C19.449 15.8603 20.8262 15.1983 22.2874 15.1982C23.3057 15.1983 24.1332 15.4299 24.7913 15.8271C25.4478 16.2235 25.8875 16.7558 26.178 17.2832C26.7441 18.3114 26.7649 19.3604 26.7649 19.5576V30.5576H31.4036V18.1455C31.4035 16.0164 30.8633 14.4289 29.9436 13.335C29.0301 12.2486 27.6591 11.5503 25.7971 11.3486L25.7834 11.3467C25.5858 11.322 25.3697 11.3086 25.1204 11.2939L24.8274 11.2871ZM3.10767 30.4111H7.74634V11.7949H3.10767V30.4111ZM5.42603 0C7.95565 0 10.0068 2.05051 10.0071 4.58008C10.0071 7.10987 7.95581 9.16113 5.42603 9.16113C2.89651 9.16081 0.845947 7.10966 0.845947 4.58008C0.846207 2.05071 2.89667 0.000321771 5.42603 0ZM5.42603 1.74609C3.86104 1.74642 2.5923 3.01508 2.59204 4.58008C2.59204 6.1453 3.86088 7.41472 5.42603 7.41504C6.99145 7.41504 8.26099 6.14549 8.26099 4.58008C8.26073 3.01488 6.99129 1.74609 5.42603 1.74609Z" fill="#05073D"/>
</svg>
