<svg width="10" height="13" viewBox="0 0 10 13" fill="none" xmlns="http://www.w3.org/2000/svg">
<path d="M8.68182 5.21429C8.68182 4.19131 8.29391 3.21023 7.60344 2.48687C6.91296 1.76352 5.97648 1.35714 5 1.35714C4.02352 1.35714 3.08704 1.76352 2.39656 2.48687C1.70609 3.21023 1.31818 4.19131 1.31818 5.21429C1.31818 6.79657 2.52664 8.85886 5 11.3291C7.47336 8.85886 8.68182 6.79657 8.68182 5.21429ZM5 12.5C1.99973 9.64314 0.5 7.214 0.5 5.21429C0.5 3.96398 0.974106 2.76488 1.81802 1.88078C2.66193 0.996682 3.80653 0.5 5 0.5C6.19347 0.5 7.33807 0.996682 8.18198 1.88078C9.02589 2.76488 9.5 3.96398 9.5 5.21429C9.5 7.214 8.00027 9.64314 5 12.5Z" fill="#05073D"/>
<path d="M5.00004 6.5C5.32554 6.5 5.6377 6.36454 5.86786 6.12342C6.09802 5.8823 6.22732 5.55528 6.22732 5.21428C6.22732 4.87329 6.09802 4.54626 5.86786 4.30515C5.6377 4.06403 5.32554 3.92857 5.00004 3.92857C4.67455 3.92857 4.36239 4.06403 4.13223 4.30515C3.90207 4.54626 3.77277 4.87329 3.77277 5.21428C3.77277 5.55528 3.90207 5.8823 4.13223 6.12342C4.36239 6.36454 4.67455 6.5 5.00004 6.5ZM5.00004 7.35714C4.45756 7.35714 3.93729 7.13138 3.55369 6.72951C3.17009 6.32765 2.95459 5.7826 2.95459 5.21428C2.95459 4.64596 3.17009 4.10092 3.55369 3.69905C3.93729 3.29719 4.45756 3.07143 5.00004 3.07143C5.54253 3.07143 6.0628 3.29719 6.4464 3.69905C6.83 4.10092 7.0455 4.64596 7.0455 5.21428C7.0455 5.7826 6.83 6.32765 6.4464 6.72951C6.0628 7.13138 5.54253 7.35714 5.00004 7.35714Z" fill="#05073D"/>
</svg>
