<svg width="40" height="42" viewBox="0 0 40 42" fill="none" xmlns="http://www.w3.org/2000/svg">
<path fill-rule="evenodd" clip-rule="evenodd" d="M20.104 2.32951e-06H19.896C18.099 -5.83934e-05 16.6006 -9.88087e-05 15.411 0.161748C14.1555 0.332602 13.0219 0.708416 12.1109 1.63033C11.2 2.55225 10.8286 3.6995 10.6598 4.97021C10.5452 5.83322 10.5127 7.89695 10.5036 9.6664C6.45908 9.80009 4.03072 10.2779 2.34314 11.9858C2.38419e-07 14.3572 0 18.174 0 25.8072C0 33.4405 2.38419e-07 37.2573 2.34314 39.6286C4.68628 42 8.45752 42 16 42H24C31.5424 42 35.3138 42 37.6568 39.6286C40 37.2573 40 33.4405 40 25.8072C40 18.174 40 14.3572 37.6568 11.9858C35.9692 10.2779 33.541 9.80009 29.4964 9.6664C29.4872 7.89695 29.4548 5.83322 29.3402 4.97021C29.1714 3.6995 28.8 2.55225 27.889 1.63033C26.9782 0.708416 25.8446 0.332602 24.589 0.161748C23.3994 -9.88087e-05 21.901 -5.83934e-05 20.104 2.32951e-06ZM26.4958 9.61827C26.4868 7.90456 26.458 6.06029 26.367 5.37479C26.2428 4.44073 26.0284 4.04099 25.7678 3.77721C25.5072 3.51343 25.1122 3.29641 24.1892 3.17083C23.2232 3.03939 21.928 3.03615 20 3.03615C18.072 3.03615 16.7768 3.03939 15.8108 3.17083C14.8879 3.29641 14.4929 3.51343 14.2322 3.77721C13.9716 4.04099 13.7572 4.44073 13.6331 5.37479C13.542 6.06029 13.5132 7.90456 13.5042 9.61827C14.287 9.61446 15.1177 9.61446 16 9.61446H24C24.8824 9.61446 25.713 9.61446 26.4958 9.61827ZM20 16.1928C20.8284 16.1928 21.5 16.8724 21.5 17.7108V17.7315C23.6776 18.2867 25.5 20.0244 25.5 22.4337C25.5 23.272 24.8284 23.9517 24 23.9517C23.1716 23.9517 22.5 23.272 22.5 22.4337C22.5 21.6564 21.6484 20.5784 20 20.5784C18.3516 20.5784 17.5 21.6564 17.5 22.4337C17.5 23.2111 18.3516 24.2892 20 24.2892C22.7698 24.2892 25.5 26.2319 25.5 29.1808C25.5 31.5901 23.6776 33.3278 21.5 33.883V33.9036C21.5 34.742 20.8284 35.4217 20 35.4217C19.1716 35.4217 18.5 34.742 18.5 33.9036V33.883C16.3224 33.3278 14.5 31.5901 14.5 29.1808C14.5 28.3424 15.1716 27.6627 16 27.6627C16.8284 27.6627 17.5 28.3424 17.5 29.1808C17.5 29.958 18.3516 31.0361 20 31.0361C21.6484 31.0361 22.5 29.958 22.5 29.1808C22.5 28.4033 21.6484 27.3253 20 27.3253C17.2302 27.3253 14.5 25.3828 14.5 22.4337C14.5 20.0244 16.3224 18.2867 18.5 17.7315V17.7108C18.5 16.8724 19.1716 16.1928 20 16.1928Z" fill="#FC673C"/>
</svg>
