<svg width="32" height="26" viewBox="0 0 32 26" fill="none" xmlns="http://www.w3.org/2000/svg">
<path d="M14.9995 21.3076V24.9999" stroke="#05073D" stroke-linecap="round" stroke-linejoin="round"/>
<path d="M14.9995 10.231V13.9233" stroke="#05073D" stroke-linecap="round" stroke-linejoin="round"/>
<path d="M14.9995 1V2.84615" stroke="#05073D" stroke-linecap="round" stroke-linejoin="round"/>
<path d="M24.2305 10.2308H6.15147C6.03017 10.2308 5.91006 10.2069 5.798 10.1605C5.68594 10.1141 5.58413 10.046 5.49839 9.96023L2.07666 6.5385L5.49839 3.11677C5.58413 3.03097 5.68594 2.96291 5.798 2.91649C5.91006 2.87006 6.03017 2.84617 6.15147 2.84619H24.2305C24.4753 2.84619 24.7101 2.94344 24.8832 3.11655C25.0563 3.28967 25.1536 3.52445 25.1536 3.76927V9.30773C25.1536 9.55255 25.0563 9.78733 24.8832 9.96044C24.7101 10.1336 24.4753 10.2308 24.2305 10.2308Z" stroke="#05073D" stroke-linecap="round" stroke-linejoin="round"/>
<path d="M5.76878 21.3075H23.8478C23.9691 21.3075 24.0892 21.2836 24.2013 21.2372C24.3133 21.1907 24.4152 21.1227 24.5009 21.0369L27.9226 17.6152L24.5009 14.1934C24.4152 14.1076 24.3133 14.0396 24.2013 13.9931C24.0892 13.9467 23.9691 13.9228 23.8478 13.9229H5.76878C5.52396 13.9229 5.28918 14.0201 5.11607 14.1932C4.94296 14.3663 4.8457 14.6011 4.8457 14.8459V20.3844C4.8457 20.6292 4.94296 20.864 5.11607 21.0371C5.28918 21.2102 5.52396 21.3075 5.76878 21.3075Z" stroke="#05073D" stroke-linecap="round" stroke-linejoin="round"/>
</svg>
