<svg width="48" height="42" viewBox="0 0 48 42" fill="none" xmlns="http://www.w3.org/2000/svg">
<path d="M20.8085 4.8254L20.2774 5.98349C19.936 6.71694 19.2153 7.18018 18.3807 7.18018H17.1289C17.8496 8.22246 19.0256 8.87871 20.3533 8.87871C22.5155 8.87871 24.2984 7.10297 24.2984 4.90261V4.70959H20.9982C20.9223 4.70959 20.8085 4.7482 20.8085 4.8254Z" fill="#FC673C"/>
<path d="M18.3813 6.17646C18.7986 6.17646 19.1779 5.90624 19.3676 5.55882L19.8987 4.40073C20.0883 3.9761 20.5056 3.66727 20.9988 3.66727H25.0577C24.5266 1.54412 22.6299 0 20.3918 0C17.7364 0 15.5742 2.20036 15.5742 4.90257C15.5742 5.3272 15.6122 5.79043 15.726 6.17646H18.3813Z" fill="#FC673C"/>
<path d="M31.7341 27.717C35.3378 27.6011 44.7833 26.7133 47.4008 24.1655C46.2248 20.4982 41.5969 20.2666 37.3863 22.1195C36.6655 22.4284 35.6792 22.6986 34.5791 22.9302L33.7067 19.5331C34.3895 19.1857 34.8447 18.4137 34.8068 17.603C34.7688 16.4449 33.8205 15.557 32.6825 15.5956L32.0376 13.0865C32.6825 12.6232 32.9859 11.8126 32.7963 10.9633C32.5307 9.84382 31.4306 9.14897 30.3685 9.38058C30.3685 9.38058 21.4161 9.45779 18.609 10.2298C15.8019 11.0019 14.8536 15.7887 14.8536 15.7887L12.3879 23.8953H0.742188V27.717H31.7341ZM23.6921 13.7427L30.634 13.4339L31.203 15.5956C29.3063 15.6729 25.9682 15.8659 23.0093 16.0589L23.6921 13.7427ZM21.7575 20.228L32.2273 19.7648L33.0997 23.1618C28.8132 23.7795 23.2749 23.8953 20.6574 23.8953L21.7575 20.228Z" fill="#FC673C"/>
<path d="M41.3311 32.5037C41.3311 32.5037 47.666 32.4265 47.666 26.0956C47.666 25.8254 47.6281 25.5938 47.6281 25.3622C43.683 28.296 33.0994 28.7592 31.7338 28.7978H0.779817V33.7776C1.53849 33.7776 2.29717 33.5846 2.97998 33.3144C4.08006 32.7739 5.33187 32.5037 6.58369 32.5037C7.79757 32.5037 9.04939 32.7739 10.1495 33.3144C10.8702 33.6232 11.6289 33.8162 12.3876 33.8162C13.1462 33.8162 13.9049 33.6618 14.5877 33.353C15.7257 32.8125 16.9396 32.5423 18.1914 32.5423C19.4433 32.5423 20.6192 32.8125 21.7572 33.353C22.478 33.6618 23.2366 33.8548 23.9953 33.8548C24.754 33.8548 25.5127 33.7004 26.1955 33.3916C27.2956 32.8511 28.5474 32.5809 29.7613 32.5809C31.0131 32.5809 32.189 32.8511 33.327 33.3916C34.0478 33.7004 34.8064 33.8934 35.5651 33.8934C35.641 33.8934 35.7548 33.8934 35.8307 33.8934L36.7411 37.5221C36.3238 37.5993 35.9445 37.6379 35.5272 37.6379C34.503 37.6379 33.5167 37.4063 32.6442 37.0203C31.7717 36.5956 30.7475 36.364 29.6854 36.364C28.6232 36.364 27.637 36.5956 26.7265 37.0203C25.8541 37.4063 24.9057 37.6379 23.8815 37.6379C22.8573 37.6379 21.871 37.4063 20.9985 37.0203C20.1261 36.5956 19.1019 36.364 18.0397 36.364C16.9776 36.364 15.9913 36.5956 15.0809 37.0203C14.2084 37.4063 13.26 37.6379 12.2358 37.6379C11.2496 37.6379 10.2633 37.4063 9.39079 37.0203C8.51832 36.5956 7.4941 36.364 6.43196 36.364C5.40774 36.364 4.38353 36.5956 3.51105 37.0203C2.63857 37.4063 1.65229 37.6379 0.666016 37.6379V42C1.69023 42 2.63857 41.7684 3.51105 41.3824C4.42146 40.9578 5.40774 40.7261 6.43196 40.7261C7.4941 40.7261 8.48038 40.9578 9.39079 41.3824C10.2633 41.7684 11.2496 42 12.2358 42C13.26 42 14.2084 41.7684 15.0809 41.3824C15.9913 40.9578 16.9776 40.7261 18.0397 40.7261C19.1019 40.7261 20.0881 40.9578 20.9985 41.3824C21.871 41.7684 22.8573 42 23.8815 42C24.9057 42 25.8541 41.7684 26.7265 41.3824C27.637 40.9578 28.6232 40.7261 29.6854 40.7261C30.7475 40.7261 31.7338 40.9578 32.6442 41.3824C33.5167 41.7684 34.503 42 35.5272 42C36.5135 42 37.4998 41.7684 38.3722 41.3824C39.2447 40.9578 40.2689 40.7261 41.3311 40.7261C42.3932 40.7261 43.3795 40.9578 44.2899 41.3824C45.1624 41.7684 46.1487 42 47.1729 42V37.5221C46.1487 37.5221 45.1624 37.2905 44.2899 36.9044C43.4174 36.4798 42.3932 36.2482 41.3311 36.2482C40.2689 36.2482 39.2826 36.4798 38.3722 36.9044C38.2964 36.9431 38.2205 36.943 38.1826 36.9817L37.3101 33.5074C37.4618 33.4302 37.6136 33.3916 37.7653 33.3144C38.8654 32.8125 40.1172 32.5037 41.3311 32.5037Z" fill="#FC673C"/>
</svg>
