<svg width="19" height="34" viewBox="0 0 19 34" fill="none" xmlns="http://www.w3.org/2000/svg">
<path d="M17.9512 17.2963C17.7936 16.7414 17.3669 16.321 16.8097 16.1717L11.2514 14.6824L16.256 2.48338C16.4584 1.98996 16.2867 1.44361 15.8384 1.15467C15.3901 0.865952 14.8217 0.935072 14.4559 1.32317L1.42885 15.1469C1.03323 15.5668 0.891082 16.1487 1.04865 16.7036C1.20622 17.2585 1.63295 17.6789 2.19014 17.8282L7.74845 19.3176L2.74383 31.5165C2.54141 32.01 2.71313 32.5563 3.1614 32.8452C3.26195 32.91 3.36855 32.9568 3.47756 32.986C3.85444 33.087 4.26018 32.9777 4.54388 32.6768L17.571 18.853C17.9666 18.4332 18.1086 17.8513 17.9512 17.2963ZM16.7636 18.0922L3.81216 31.835L9.01391 19.1555C9.07441 19.008 9.06853 18.8416 8.99777 18.6988C8.92702 18.556 8.79825 18.4505 8.64431 18.4092L2.47716 16.7568C2.22286 16.6886 2.13967 16.485 2.11573 16.4007C2.09178 16.3163 2.05559 16.0993 2.23608 15.9078L15.1877 2.16482L9.9859 14.8445C9.92541 14.9919 9.93129 15.1583 10.002 15.3011C10.0728 15.444 10.2016 15.5494 10.3555 15.5907L16.5227 17.2432C16.777 17.3113 16.8601 17.5149 16.8841 17.5993C16.9079 17.6837 16.9441 17.9006 16.7636 18.0922Z" fill="#FFD166"/>
</svg>
