<svg width="32" height="24" viewBox="0 0 32 24" fill="none" xmlns="http://www.w3.org/2000/svg">
<path d="M27 13.2C27 11.3432 24.6472 10.2528 21.7148 9.81919C22.698 9.37561 23.4 8.7352 23.4 7.8C23.4 5.99081 20.7928 5.27119 18.5496 4.986C19.3324 4.4708 19.8 3.79402 19.8 3C19.8 1.23361 17.5796 0 14.4 0C11.2204 0 9 1.23361 9 3C9 3.98039 9.70158 4.78598 10.8544 5.31839C9.21483 5.73117 7.8 6.4688 7.8 7.8C7.8 9.57398 10.3076 10.3008 12.5192 10.5976C11.1204 11.186 10.2 12.0424 10.2 13.2C10.2 14.258 10.968 15.0648 12.1672 15.6456C8.18278 15.8624 3 16.9032 3 19.8C3 23.1152 9.78881 24 13.8 24C17.8112 24 24.6 23.1152 24.6 19.8C24.6 18.2884 23.1828 17.286 21.2668 16.6384C24.4028 16.2524 27 15.1504 27 13.2ZM10.2 3C10.2 2.00602 12.0804 1.2 14.4 1.2C16.7196 1.2 18.6 2.00602 18.6 3C18.6 3.99398 16.7196 4.8 14.4 4.8C12.0804 4.8 10.2 3.99398 10.2 3ZM9 7.8C9 6.80602 11.9548 6 15.6 6C19.2452 6 22.2 6.80602 22.2 7.8C22.2 8.79398 19.2452 9.6 15.6 9.6C11.9548 9.6 9 8.79398 9 7.8ZM23.4 19.8C23.4 21.4568 19.102 22.8 13.8 22.8C8.49802 22.8 4.2 21.4568 4.2 19.8C4.2 18.1432 8.49802 16.8 13.8 16.8C19.102 16.8 23.4 18.1432 23.4 19.8ZM18.6 15.6C14.6236 15.6 11.4 14.5256 11.4 13.2C11.4 11.8744 14.6236 10.8 18.6 10.8C22.5764 10.8 25.8 11.8744 25.8 13.2C25.8 14.5256 22.5764 15.6 18.6 15.6Z" fill="black"/>
</svg>
