<svg width="21" height="22" viewBox="0 0 21 22" fill="none" xmlns="http://www.w3.org/2000/svg">
<path d="M20.4601 7.96745L12.4501 1.32995C12.2278 1.14185 11.9555 1.02254 11.6665 0.986577C11.3775 0.950618 11.0842 0.999567 10.8226 1.12745C10.5648 1.2485 10.3468 1.44044 10.194 1.68083C10.0413 1.92123 9.96015 2.20014 9.96009 2.48495V3.98495C7.04123 5.00521 4.51317 6.91027 2.72794 9.43487C0.942708 11.9595 -0.0108345 14.9779 9.28794e-05 18.0699C-0.000854163 18.8512 0.0618532 19.6313 0.187593 20.4024C0.212056 20.5575 0.284563 20.701 0.394897 20.8127C0.505231 20.9244 0.647828 20.9986 0.802593 21.0249H0.930093C1.06577 21.0246 1.19881 20.9874 1.31504 20.9174C1.43126 20.8474 1.52632 20.7472 1.59009 20.6274C2.44778 19.0138 3.63682 17.5997 5.07928 16.4778C6.52173 15.3559 8.18501 14.5515 9.96009 14.1174V15.7374C9.96015 16.0223 10.0413 16.3012 10.194 16.5416C10.3468 16.782 10.5648 16.9739 10.8226 17.0949C11.029 17.1924 11.2543 17.2436 11.4826 17.2449C11.8375 17.2432 12.1803 17.1156 12.4501 16.8849L16.0951 13.8849L16.1626 13.8324L20.4601 10.2699C20.6273 10.1291 20.7618 9.95349 20.854 9.75527C20.9463 9.55706 20.994 9.34107 20.994 9.12245C20.994 8.90382 20.9463 8.68784 20.854 8.48963C20.7618 8.29141 20.6273 8.11575 20.4601 7.97495V7.96745ZM15.2626 12.6174L15.1951 12.6699L11.4451 15.7449V13.1799C11.4494 13.1602 11.4494 13.1397 11.4451 13.1199C11.4451 13.1199 11.4451 13.0749 11.4451 13.0524C11.4451 13.0299 11.4451 12.9999 11.4076 12.9699C11.3934 12.9237 11.3758 12.8786 11.3551 12.8349C11.3279 12.7887 11.2923 12.748 11.2501 12.7149C11.2263 12.6773 11.1958 12.6442 11.1601 12.6174C11.1208 12.5831 11.0781 12.5529 11.0326 12.5274L10.9201 12.4749H10.7551H10.6801H10.6201H10.5526C6.94145 13.0978 3.70388 15.0747 1.50009 18.0024C1.50308 15.1499 2.41916 12.3733 4.11423 10.079C5.80929 7.7847 8.19431 6.09331 10.9201 5.25245H10.9576C11.0071 5.23451 11.0548 5.21191 11.1001 5.18495C11.1527 5.15668 11.2029 5.12407 11.2501 5.08745L11.3401 4.98245C11.3719 4.94716 11.3973 4.90654 11.4151 4.86245C11.4346 4.82167 11.4497 4.77892 11.4601 4.73495C11.4643 4.68254 11.4643 4.62986 11.4601 4.57745V2.52245L19.5001 9.11495L15.2626 12.6174Z" fill="#7D7D7D"/>
</svg>
