<svg width="56" height="57" viewBox="0 0 56 57" fill="none" xmlns="http://www.w3.org/2000/svg">
<g clip-path="url(#clip0_198_487)">
<path d="M28.0015 40.0253C21.5071 40.0253 16.2246 34.7427 16.2246 28.2484C16.2246 21.754 21.5071 16.4714 28.0015 16.4714C34.4959 16.4714 39.7785 21.754 39.7785 28.2484C39.7785 34.7427 34.4959 40.0253 28.0015 40.0253ZM28.0015 18.402C22.5707 18.402 18.1552 22.8208 18.1552 28.2516C18.1552 33.6824 22.574 38.0979 28.0015 38.0979C33.4291 38.0979 37.8511 33.6791 37.8511 28.2516C37.8511 22.824 33.4323 18.402 28.0015 18.402Z" fill="#FFD166"/>
<path d="M28.0018 13.5321C27.47 13.5321 27.0381 13.1002 27.0381 12.5684V1.21368C27.0381 0.681885 27.47 0.25 28.0018 0.25C28.5336 0.25 28.9655 0.681885 28.9655 1.21368V12.5684C28.9655 13.1002 28.5336 13.5321 28.0018 13.5321Z" fill="#FFD166"/>
<path d="M20.1601 15.6335C19.8281 15.6335 19.5026 15.4594 19.3253 15.15L13.6464 5.31658C13.3788 4.85568 13.5368 4.26587 13.9977 4.00158C14.4586 3.73407 15.0484 3.892 15.3127 4.35289L20.9916 14.1863C21.2591 14.6472 21.1012 15.237 20.6403 15.5013C20.4888 15.5883 20.3212 15.6302 20.1601 15.6302V15.6335Z" fill="#FFD166"/>
<path d="M14.42 21.3737C14.2556 21.3737 14.0912 21.3318 13.9398 21.2448L4.10631 15.569C3.64542 15.3015 3.48749 14.7149 3.755 14.254C4.02251 13.7931 4.61233 13.6352 5.06999 13.9027L14.9034 19.5784C15.3643 19.846 15.5223 20.4325 15.2547 20.8934C15.0775 21.2029 14.752 21.3769 14.42 21.3769V21.3737Z" fill="#FFD166"/>
<path d="M12.3184 29.2153H0.963683C0.431885 29.2153 0 28.7834 0 28.2516C0 27.7198 0.431885 27.288 0.963683 27.288H12.3184C12.8502 27.288 13.2821 27.7198 13.2821 28.2516C13.2821 28.7834 12.8502 29.2153 12.3184 29.2153Z" fill="#FFD166"/>
<path d="M4.58635 42.7326C4.25438 42.7326 3.92885 42.5586 3.75158 42.2492C3.48407 41.7883 3.642 41.1985 4.10289 40.9342L13.9363 35.2585C14.3972 34.9942 14.987 35.1489 15.2513 35.6098C15.5188 36.0707 15.3609 36.6605 14.9 36.9248L5.06658 42.6005C4.91509 42.6875 4.7475 42.7294 4.58635 42.7294V42.7326Z" fill="#FFD166"/>
<path d="M14.4808 52.6273C14.3165 52.6273 14.1521 52.5854 14.0006 52.4984C13.5397 52.2309 13.3818 51.6443 13.6493 51.1834L19.3283 41.35C19.5958 40.8891 20.1856 40.7311 20.6432 40.9987C21.1041 41.2662 21.2621 41.8528 20.9946 42.3136L15.3156 52.1471C15.1383 52.4565 14.8128 52.6305 14.4808 52.6305V52.6273Z" fill="#FFD166"/>
<path d="M28.0018 56.2501C27.47 56.2501 27.0381 55.8182 27.0381 55.2864V43.9317C27.0381 43.3999 27.47 42.968 28.0018 42.968C28.5336 42.968 28.9655 43.3999 28.9655 43.9317V55.2864C28.9655 55.8182 28.5336 56.2501 28.0018 56.2501Z" fill="#FFD166"/>
<path d="M41.519 52.6274C41.1871 52.6274 40.8616 52.4533 40.6843 52.1439L35.0085 42.3105C34.741 41.8496 34.899 41.2598 35.3599 40.9955C35.8207 40.728 36.4106 40.8859 36.6748 41.3468L42.3506 51.1802C42.6181 51.6411 42.4602 52.2309 41.9993 52.4952C41.8478 52.5822 41.6802 52.6241 41.519 52.6241V52.6274Z" fill="#FFD166"/>
<path d="M51.4138 42.7327C51.2494 42.7327 51.085 42.6908 50.9335 42.6038L41.1001 36.928C40.6392 36.6605 40.4813 36.0739 40.7488 35.613C41.0163 35.1521 41.6061 34.9942 42.0638 35.2617L51.8972 40.9375C52.3581 41.205 52.516 41.7916 52.2485 42.2525C52.0713 42.5619 51.7457 42.7359 51.4138 42.7359V42.7327Z" fill="#FFD166"/>
<path d="M55.0364 29.2153H43.6817C43.1499 29.2153 42.718 28.7834 42.718 28.2516C42.718 27.7198 43.1499 27.288 43.6817 27.288H55.0364C55.5682 27.288 56.0001 27.7198 56.0001 28.2516C56.0001 28.7834 55.5682 29.2153 55.0364 29.2153Z" fill="#FFD166"/>
<path d="M41.5835 21.3737C41.2516 21.3737 40.926 21.1997 40.7488 20.8903C40.4813 20.4294 40.6392 19.8396 41.1001 19.5753L50.9335 13.8995C51.3944 13.632 51.9842 13.79 52.2485 14.2508C52.516 14.7117 52.3581 15.3015 51.8972 15.5658L42.0638 21.2416C41.9123 21.3286 41.7447 21.3705 41.5835 21.3705V21.3737Z" fill="#FFD166"/>
<path d="M35.8401 15.6334C35.6757 15.6334 35.5113 15.5915 35.3599 15.5045C34.899 15.237 34.741 14.6504 35.0085 14.1895L40.6843 4.35607C40.9518 3.89518 41.5416 3.73725 41.9993 4.00476C42.4602 4.27227 42.6181 4.85886 42.3506 5.31975L36.6748 15.1532C36.4976 15.4626 36.1721 15.6366 35.8401 15.6366V15.6334Z" fill="#FFD166"/>
</g>
<defs>
<clipPath id="clip0_198_487">
<rect width="56" height="56" fill="white" transform="translate(0 0.25)"/>
</clipPath>
</defs>
</svg>
