<svg width="16" height="16" viewBox="0 0 16 16" fill="none" xmlns="http://www.w3.org/2000/svg">
<path d="M4.17478 5.879C4.56611 5.20121 5.13724 4.64483 5.82505 4.27138C6.51285 3.89794 7.29053 3.72197 8.0721 3.76293C8.85367 3.80389 9.6087 4.06018 10.2537 4.50348C10.8987 4.94678 11.4085 5.5598 11.7269 6.27479M3.19873 4.56097L3.58566 6.23701C3.65157 6.52248 3.9364 6.70047 4.22187 6.63456L5.89791 6.24763M11.5252 10.1227C11.1339 10.8005 10.5628 11.3569 9.87497 11.7303C9.18717 12.1038 8.40949 12.2797 7.62792 12.2388C6.84634 12.1978 6.09132 11.9415 5.44632 11.4982C4.80132 11.0549 4.29147 10.4419 3.97314 9.72692M12.5013 11.4407L12.1144 9.7647C12.0485 9.47923 11.7636 9.30124 11.4782 9.36715L9.80211 9.75408" stroke="#717171" stroke-linecap="round"/>
</svg>
