<svg width="25" height="26" viewBox="0 0 25 26" fill="none" xmlns="http://www.w3.org/2000/svg">
<path d="M15.6738 0.503906C16.5388 0.54688 17.3593 0.910097 17.9746 1.52539C18.631 2.18177 19 3.07174 19 4C19 4.83639 18.789 5.51369 18.3789 6.04102C18.2432 6.21551 18.0882 6.36619 17.9209 6.5H25V13.5H23V25.5H2V13.5H0V6.5H7.0791C6.91183 6.36619 6.75681 6.21551 6.62109 6.04102C6.21101 5.51369 6 4.83639 6 4C6 3.07174 6.36901 2.18177 7.02539 1.52539C7.68177 0.869013 8.57174 0.5 9.5 0.5C10.3738 0.5 11.0622 0.796344 11.5811 1.2959C12.0084 1.70742 12.2986 2.2364 12.5 2.79492C12.7014 2.2364 12.9916 1.70742 13.4189 1.2959C13.9378 0.796344 14.6262 0.5 15.5 0.5L15.6738 0.503906ZM13 24.5H22V13.5H13V24.5ZM3 24.5H12V13.5H3V24.5ZM13 12.5H24V7.5H13V12.5ZM1 12.5H12V7.5H1V12.5ZM9.5 1.5C8.83696 1.5 8.20126 1.76358 7.73242 2.23242C7.26358 2.70126 7 3.33696 7 4C7 4.66354 7.16406 5.11133 7.41016 5.42773C7.65961 5.74839 8.03194 5.9833 8.5332 6.15039C9.45001 6.45599 10.664 6.49233 11.9961 6.49707C11.9881 5.54692 11.942 4.37868 11.6465 3.39355C11.4729 2.8148 11.2251 2.34161 10.8877 2.0166C10.5628 1.70375 10.1261 1.5 9.5 1.5ZM15.5 1.5C14.8739 1.5 14.4372 1.70375 14.1123 2.0166C13.7749 2.34161 13.5271 2.8148 13.3535 3.39355C13.058 4.37868 13.011 5.54692 13.0029 6.49707C14.3354 6.49234 15.5498 6.45607 16.4668 6.15039C16.9681 5.9833 17.3404 5.74839 17.5898 5.42773C17.8359 5.11133 18 4.66354 18 4L17.9873 3.75293C17.9305 3.18063 17.6778 2.64265 17.2676 2.23242C16.8573 1.82219 16.3194 1.56952 15.7471 1.5127L15.5 1.5Z" fill="#FFD166"/>
</svg>
