<svg width="19" height="18" viewBox="0 0 19 18" fill="none" xmlns="http://www.w3.org/2000/svg">
<path d="M10.5137 0.80598C11.5867 -0.268666 13.3274 -0.269589 14.4014 0.804027L16.8936 3.29621C17.958 4.36095 17.9687 6.08414 16.918 7.16243L7.68555 16.6361C6.98003 17.3599 6.01137 17.7679 5.00098 17.7679H2.25C1.05069 17.7678 0.0774547 16.8306 0.00488281 15.6595L0.00292969 15.4232L0.120117 12.6146C0.159615 11.6756 0.550055 10.7843 1.21387 10.1195L10.5137 0.80598ZM17.5146 16.1947C17.9286 16.1947 18.2646 16.5304 18.2646 16.9447C18.2646 17.359 17.9287 17.6947 17.5146 17.6947H11.3936L11.3164 17.6907C10.9386 17.6521 10.6436 17.333 10.6436 16.9447C10.6436 16.5564 10.9386 16.2372 11.3164 16.1986L11.3936 16.1947H17.5146ZM2.27441 11.181C1.87636 11.5798 1.64186 12.1138 1.61816 12.6771L1.50098 15.4857V15.5657C1.52555 15.9556 1.84974 16.2676 2.24902 16.2679H5.00195C5.60809 16.2678 6.18906 16.0225 6.6123 15.5882L13.1436 8.88508L8.85059 4.59309L2.27441 11.181ZM13.3418 1.86555C12.8536 1.37755 12.062 1.37805 11.5742 1.86653L9.91113 3.53157L14.1914 7.81184L15.8447 6.11555C16.3222 5.62547 16.3176 4.84171 15.834 4.35774L13.3418 1.86555Z" fill="#7D7D7D"/>
</svg>
