<svg width="16" height="13" viewBox="0 0 16 13" fill="none" xmlns="http://www.w3.org/2000/svg">
<ellipse cx="2.43748" cy="2.53119" rx="2.43748" ry="2.53119" transform="matrix(-1 0 0 1 10.6388 1.42294)" stroke="#05073D"/>
<path d="M3.93579 10.1759C3.93579 9.66927 4.25101 9.21617 4.72599 9.04002V9.04002C6.96829 8.2084 9.43446 8.2084 11.6768 9.04002V9.04002C12.1517 9.21617 12.467 9.66927 12.467 10.1759V11.059C12.467 11.8166 11.7938 12.3972 11.0445 12.286L10.9031 12.2651C9.11174 11.9993 7.29101 11.9993 5.49969 12.2651L5.35828 12.286C4.60891 12.3972 3.93579 11.8166 3.93579 11.059V10.1759Z" stroke="#05073D"/>
<path d="M11.8575 6.55546C12.9153 6.55546 13.7727 5.66504 13.7727 4.56666C13.7727 3.46828 12.9153 2.57787 11.8575 2.57787" stroke="#05073D" stroke-linecap="round"/>
<path d="M13.9551 11.0928L14.1427 11.1206C14.7055 11.2041 15.2091 10.7506 15.2091 10.1602V9.50613C15.2091 9.07836 14.9501 8.69677 14.5622 8.55289C14.1752 8.40938 13.7803 8.29762 13.381 8.21761" stroke="#05073D" stroke-linecap="round"/>
<path d="M4.24048 6.55546C3.18276 6.55546 2.32532 5.66504 2.32532 4.56666C2.32532 3.46828 3.18276 2.57787 4.24048 2.57787" stroke="#05073D" stroke-linecap="round"/>
<path d="M2.14295 11.0928L1.9553 11.1206C1.39248 11.2041 0.888935 10.7506 0.888935 10.1602V9.50613C0.888935 9.07836 1.14789 8.69677 1.53582 8.55289C1.92279 8.40938 2.3177 8.29762 2.71704 8.21761" stroke="#05073D" stroke-linecap="round"/>
</svg>
