<svg width="32" height="20" viewBox="0 0 32 20" fill="none" xmlns="http://www.w3.org/2000/svg">
<g clip-path="url(#clip0_5_272)">
<path d="M31.6146 11.3227C31.576 11.3227 31.5361 11.3163 31.4974 11.3046L13.8925 5.6853C13.7689 5.64521 13.6736 5.54694 13.6388 5.42152C13.604 5.2961 13.6336 5.16163 13.7186 5.06337C16.457 1.90459 20.7951 0.682709 24.7674 1.95113C28.741 3.21956 31.5786 6.73133 31.9972 10.8973C32.0101 11.0266 31.9572 11.1547 31.8568 11.2361C31.7872 11.293 31.7009 11.3227 31.6146 11.3227ZM14.704 5.13189L31.1548 10.3827C30.5713 6.78434 28.0262 3.80141 24.5356 2.68685C21.0437 1.57229 17.2504 2.53298 14.704 5.13189Z" fill="#05073D"/>
<path d="M15.2783 3.70065L15.0449 4.4375L31.277 9.61896L31.5104 8.8821L15.2783 3.70065Z" fill="#05073D"/>
<path d="M17.1675 2.60153L16.9341 3.33838L30.3663 7.62609L30.5997 6.88924L17.1675 2.60153Z" fill="#05073D"/>
<path d="M24.9786 2.56511C24.8511 2.56511 24.721 2.54572 24.5922 2.50434C23.9211 2.28971 23.5489 1.56692 23.7614 0.893275C23.8645 0.567441 24.0886 0.299792 24.3913 0.14334C24.694 -0.014405 25.0405 -0.0441439 25.365 0.0605885C25.6896 0.164028 25.955 0.389009 26.1121 0.692862C26.2692 0.996715 26.2989 1.34453 26.1945 1.67036C26.0219 2.21601 25.517 2.56382 24.9761 2.56382L24.9786 2.56511ZM24.9786 0.773027C24.8988 0.773027 24.8189 0.792422 24.7468 0.829919C24.627 0.891982 24.5381 0.998008 24.4969 1.12731C24.4119 1.39496 24.56 1.682 24.8266 1.76734C25.0933 1.85268 25.3779 1.70398 25.4629 1.43633C25.5041 1.30703 25.4926 1.16868 25.4307 1.04843C25.3689 0.928186 25.2633 0.83897 25.1345 0.797594C25.083 0.780785 25.0314 0.773027 24.9799 0.773027H24.9786Z" fill="#05073D"/>
<path d="M21.8691 7.88714L18.4614 18.6577L19.1955 18.8918L22.6032 8.12119L21.8691 7.88714Z" fill="#05073D"/>
<path d="M22.9809 8.24114L19.5732 19.0117L20.3074 19.2458L23.715 8.47519L22.9809 8.24114Z" fill="#05073D"/>
<path d="M30.4826 19.2771H14.1503C13.9377 19.2771 13.7651 19.1039 13.7651 18.8905C13.7651 18.6772 13.9377 18.5039 14.1503 18.5039H30.4826C30.6951 18.5039 30.8677 18.6772 30.8677 18.8905C30.8677 19.1039 30.6951 19.2771 30.4826 19.2771Z" fill="#05073D"/>
<path d="M5.45102 20C4.62152 20 3.84612 19.55 3.4288 18.8272C3.14929 18.3424 2.62893 18.0398 2.07378 18.0398C1.51864 18.0398 0.99827 18.3411 0.718766 18.8272C0.611859 19.0121 0.377436 19.0755 0.191959 18.9682C0.00776959 18.8609 -0.0553442 18.6242 0.0515629 18.4393C0.468887 17.7166 1.243 17.2666 2.07378 17.2666C2.90457 17.2666 3.67868 17.7166 4.096 18.4393C4.3755 18.9242 4.89587 19.2268 5.45102 19.2268C6.00616 19.2268 6.52653 18.9255 6.80603 18.4393C6.91294 18.2544 7.14865 18.1911 7.33284 18.2984C7.51703 18.4057 7.58014 18.6423 7.47323 18.8272C7.05591 19.55 6.28051 20 5.45102 20Z" fill="#05073D"/>
<path d="M12.2054 20C11.3759 20 10.6005 19.55 10.1832 18.8272C9.90369 18.3424 9.38332 18.0398 8.82818 18.0398C8.27303 18.0398 7.75266 18.3411 7.47316 18.8272C7.36625 19.0121 7.13054 19.0755 6.94635 18.9682C6.76216 18.8609 6.69905 18.6242 6.80596 18.4393C7.22328 17.7166 7.99739 17.2666 8.82818 17.2666C9.65896 17.2666 10.4331 17.7166 10.8504 18.4393C11.1299 18.9242 11.6503 19.2268 12.2054 19.2268C12.7606 19.2268 13.2809 18.9255 13.5604 18.4393C13.6673 18.2544 13.9018 18.1911 14.0872 18.2984C14.2714 18.4057 14.3345 18.6423 14.2276 18.8272C13.8103 19.55 13.0362 20 12.2054 20Z" fill="#05073D"/>
<path d="M13.894 19.0199C13.8283 19.0199 13.7626 19.0031 13.7007 18.9682C13.5166 18.8609 13.4534 18.6242 13.5604 18.4393C13.9777 17.7166 14.7518 17.2666 15.5826 17.2666C16.4134 17.2666 17.1875 17.7166 17.6048 18.4393C17.7117 18.6242 17.6486 18.8609 17.4644 18.9682C17.2802 19.0755 17.0445 19.0121 16.9376 18.8272C16.6581 18.3424 16.139 18.0398 15.5826 18.0398C15.0261 18.0398 14.5071 18.3411 14.2276 18.8272C14.1567 18.9514 14.0266 19.0199 13.894 19.0199Z" fill="#05073D"/>
<path d="M9.80691 8.32025C9.67424 8.32025 9.54415 8.25173 9.47331 8.1276C9.2698 7.7759 8.89369 7.55739 8.49054 7.55739C8.08738 7.55739 7.71127 7.7759 7.50776 8.1276C7.4395 8.24655 7.31198 8.32025 7.17416 8.32025C7.03634 8.32025 6.91012 8.24655 6.84056 8.1276C6.63705 7.7759 6.26094 7.55739 5.85779 7.55739C5.45463 7.55739 5.07853 7.7759 4.87502 8.1276C4.76811 8.3125 4.5324 8.37585 4.34821 8.26853C4.16402 8.16122 4.10091 7.9246 4.20781 7.7397C4.54785 7.1501 5.18028 6.78418 5.8565 6.78418C6.35111 6.78418 6.82253 6.97942 7.17287 7.3156C7.52322 6.97942 7.99464 6.78418 8.48925 6.78418C9.16676 6.78418 9.7979 7.1501 10.1379 7.7397C10.2448 7.9246 10.1817 8.16122 9.99754 8.26853C9.937 8.30344 9.87003 8.32025 9.80434 8.32025H9.80691Z" fill="#05073D"/>
<path d="M13.8953 11.3963C13.7626 11.3963 13.6325 11.3277 13.5617 11.2036C13.3582 10.8519 12.9821 10.6334 12.5789 10.6334C12.1758 10.6334 11.7997 10.8519 11.5961 11.2036C11.5279 11.3226 11.4004 11.3963 11.2625 11.3963C11.1247 11.3963 10.9985 11.3226 10.9289 11.2036C10.7254 10.8519 10.3493 10.6334 9.94617 10.6334C9.54301 10.6334 9.1669 10.8519 8.96339 11.2036C8.85649 11.3885 8.62206 11.4519 8.43659 11.3445C8.2524 11.2372 8.18928 11.0006 8.29619 10.8157C8.63623 10.2261 9.26866 9.85889 9.94488 9.85889C10.4395 9.85889 10.9096 10.0541 11.2613 10.3903C11.6116 10.0541 12.083 9.85889 12.5776 9.85889C13.2538 9.85889 13.8863 10.2248 14.2263 10.8157C14.3332 11.0006 14.2701 11.2372 14.0859 11.3445C14.0254 11.3794 13.9584 11.3963 13.8927 11.3963H13.8953Z" fill="#05073D"/>
</g>
<defs>
<clipPath id="clip0_5_272">
<rect width="32" height="20" fill="white"/>
</clipPath>
</defs>
</svg>
