<svg width="268" height="44" viewBox="0 0 268 44" fill="none" xmlns="http://www.w3.org/2000/svg">
<path d="M45.2283 15.2913L41.4138 24.7903L41.3972 24.8313L41.3679 24.8635L41.1921 25.0608L41.0251 25.2473L40.8386 25.0793L34.656 19.511L34.488 19.3596L34.6208 19.177L34.9128 18.7786L34.9568 18.718L35.0261 18.6917L44.908 14.9641L45.4402 14.7639L45.2283 15.2913Z" fill="#FDAE1B" stroke="white" stroke-width="0.5"/>
<path d="M35.0293 19.0845L41.2061 24.6588L41.374 24.8101L41.2412 24.9918L40.9492 25.3912L40.9053 25.4517L40.8359 25.4771L30.9482 29.1998L30.416 29.4L30.6279 28.8726L34.4482 19.3736L34.4648 19.3306L34.4961 19.2974L34.6777 19.1002L34.8457 18.9185L35.0293 19.0845Z" fill="#FC673C" stroke="white" stroke-width="0.5"/>
<path d="M40.0879 7.78613L39.5254 7.71484C38.8939 7.63502 38.2555 7.58789 37.6094 7.58789C29.6003 7.5879 23.1055 14.0458 23.1055 22.0029C23.1056 29.9601 29.5949 36.4168 37.6035 36.417C45.6123 36.417 52.1024 29.9602 52.1025 22.0029C52.1025 21.3014 52.0491 20.6139 51.9531 19.9355L51.876 19.3887L52.4277 19.3662L56.5498 19.1973L56.5605 19.1963H57.0215L57.0723 19.6387C57.1619 20.4127 57.2188 21.198 57.2188 22.0029C57.2186 32.7749 48.435 41.5059 37.6094 41.5059C26.7837 41.5058 18.0001 32.7749 18 22.0029C18 11.2308 26.7837 2.50001 37.6094 2.5C38.2989 2.5 38.9758 2.53941 39.6387 2.60645L40.0879 2.65137V7.78613Z" fill="#FC673C" stroke="white"/>
<path d="M79.7084 6.08246C81.2858 6.08246 82.8741 6.23002 84.4679 6.53061C86.0617 6.8312 87.4357 7.26296 88.5899 7.83134L87.4962 13.2747C86.5839 12.914 85.5451 12.6025 84.38 12.3457C83.2094 12.0888 82.0497 11.9631 80.8956 11.9631C77.8013 11.9631 75.3557 12.7665 73.5695 14.3733C71.7778 15.9801 70.882 18.423 70.882 21.6967C70.882 24.9704 71.7778 27.4134 73.5695 29.0202C75.3611 30.627 77.8013 31.4304 80.8956 31.4304C82.0497 31.4304 83.2094 31.3047 84.38 31.0478C85.5451 30.7909 86.5894 30.4794 87.4962 30.1187L88.5899 35.5621C87.4357 36.1305 86.0617 36.5677 84.4679 36.8628C82.8741 37.1634 81.2913 37.311 79.7084 37.311C77.0374 37.311 74.6851 36.9175 72.6516 36.136C70.6181 35.349 68.9199 34.2668 67.5514 32.8787C66.1884 31.4905 65.1552 29.8454 64.4572 27.9435C63.7592 26.0416 63.4075 23.9593 63.4075 21.6967C63.4075 19.4341 63.7537 17.3518 64.4572 15.4499C65.1552 13.548 66.1884 11.903 67.5514 10.5148C68.9144 9.12661 70.6181 8.03902 72.6516 7.25749C74.6851 6.47049 77.0374 6.08246 79.7084 6.08246Z" fill="white"/>
<path d="M113.305 25.6809C113.305 27.3095 113.047 28.8289 112.53 30.228C112.014 31.6326 111.255 32.8513 110.255 33.8952C109.255 34.9391 108.007 35.7534 106.523 36.3382C105.034 36.9284 103.336 37.2235 101.423 37.2235C99.5104 37.2235 97.8122 36.9284 96.3228 36.3382C94.8334 35.7479 93.5913 34.9336 92.591 33.8952C91.5908 32.8568 90.8323 31.6326 90.3157 30.228C89.7991 28.8234 89.5408 27.3095 89.5408 25.6809C89.5408 24.0522 89.7991 22.5329 90.3157 21.1338C90.8323 19.7292 91.5908 18.5105 92.591 17.4666C93.5913 16.4227 94.8389 15.6084 96.3228 15.0236C97.8067 14.4334 99.5104 14.1382 101.423 14.1382C103.336 14.1382 105.034 14.4334 106.523 15.0236C108.007 15.6139 109.255 16.4282 110.255 17.4666C111.255 18.505 112.014 19.7292 112.53 21.1338C113.047 22.5384 113.305 24.0522 113.305 25.6809ZM106.018 25.6809C106.018 24.8939 105.941 24.1342 105.792 23.3964C105.638 22.6586 105.391 21.9918 105.039 21.4071C104.688 20.8168 104.22 20.3523 103.627 20.0025C103.033 19.6582 102.297 19.4833 101.418 19.4833C100.538 19.4833 99.8017 19.6582 99.2081 20.0025C98.6146 20.3523 98.1474 20.8168 97.7957 21.4071C97.4439 21.9973 97.1966 22.6586 97.0427 23.3964C96.8889 24.1342 96.8174 24.8994 96.8174 25.6809C96.8174 26.4624 96.8943 27.2276 97.0427 27.9654C97.1966 28.7032 97.4439 29.3699 97.7957 29.9547C98.1419 30.545 98.6146 31.0095 99.2081 31.3593C99.8017 31.7091 100.538 31.8785 101.418 31.8785C102.297 31.8785 103.033 31.7036 103.627 31.3593C104.22 31.015 104.688 30.545 105.039 29.9547C105.386 29.3645 105.638 28.7032 105.792 27.9654C105.946 27.2276 106.018 26.4624 106.018 25.6809Z" fill="white"/>
<path d="M137.608 25.6809C137.608 27.3095 137.35 28.8289 136.833 30.228C136.317 31.6326 135.558 32.8513 134.558 33.8952C133.558 34.9391 132.31 35.7534 130.826 36.3382C129.337 36.9284 127.639 37.2235 125.726 37.2235C123.813 37.2235 122.115 36.9284 120.626 36.3382C119.136 35.7479 117.894 34.9336 116.894 33.8952C115.894 32.8568 115.135 31.6326 114.619 30.228C114.102 28.8234 113.844 27.3095 113.844 25.6809C113.844 24.0522 114.102 22.5329 114.619 21.1338C115.135 19.7292 115.894 18.5105 116.894 17.4666C117.894 16.4227 119.142 15.6084 120.626 15.0236C122.11 14.4334 123.813 14.1382 125.726 14.1382C127.639 14.1382 129.337 14.4334 130.826 15.0236C132.31 15.6139 133.558 16.4282 134.558 17.4666C135.558 18.505 136.317 19.7292 136.833 21.1338C137.35 22.5384 137.608 24.0522 137.608 25.6809ZM130.326 25.6809C130.326 24.8939 130.249 24.1342 130.101 23.3964C129.947 22.6586 129.7 21.9918 129.348 21.4071C128.996 20.8168 128.529 20.3523 127.935 20.0025C127.342 19.6582 126.605 19.4833 125.726 19.4833C124.847 19.4833 124.11 19.6582 123.517 20.0025C122.923 20.3523 122.456 20.8168 122.104 21.4071C121.752 21.9973 121.505 22.6586 121.351 23.3964C121.197 24.1342 121.126 24.8994 121.126 25.6809C121.126 26.4624 121.203 27.2276 121.351 27.9654C121.505 28.7032 121.752 29.3699 122.104 29.9547C122.45 30.545 122.923 31.0095 123.517 31.3593C124.11 31.7091 124.847 31.8785 125.726 31.8785C126.605 31.8785 127.342 31.7036 127.935 31.3593C128.529 31.015 128.996 30.545 129.348 29.9547C129.694 29.3645 129.947 28.7032 130.101 27.9654C130.255 27.2276 130.326 26.4624 130.326 25.6809Z" fill="white"/>
<path d="M146.671 29.9821C146.671 30.5559 146.792 30.9986 147.034 31.3156C147.275 31.6326 147.748 31.7911 148.446 31.7911C148.869 31.7911 149.386 31.7474 149.996 31.6544L150.221 36.6333C149.611 36.8137 148.924 36.9558 148.149 37.0651C147.374 37.1689 146.577 37.2235 145.759 37.2235C144.544 37.2235 143.527 37.0432 142.708 36.6825C141.889 36.3218 141.235 35.8408 140.752 35.2342C140.268 34.633 139.916 33.9444 139.702 33.1738C139.488 32.4032 139.383 31.6107 139.383 30.7964V4.81451H146.665V29.9821H146.671Z" fill="white"/>
<path d="M173.249 6.62347V12.5096H165.099V36.7699H157.635V12.5096H149.485V6.62347H173.244H173.249Z" fill="white"/>
<path d="M187.456 20.8386H186.594C183.708 20.8386 181.68 21.5655 180.493 23.0138V36.7753H173.211V14.5918H180.268V18.3027C180.691 17.0949 181.345 16.144 182.224 15.4499C183.104 14.7558 184.258 14.406 185.681 14.406C186.104 14.406 186.462 14.4279 186.753 14.4716C187.039 14.5153 187.336 14.5864 187.643 14.6738L187.462 20.8277L187.456 20.8386Z" fill="white"/>
<path d="M200.471 34.5947C199.773 35.2888 198.822 35.9009 197.624 36.4256C196.426 36.9503 195.112 37.2181 193.683 37.2181C192.683 37.2181 191.787 37.0541 190.996 36.7207C190.204 36.3874 189.545 35.9392 189.017 35.3653C188.484 34.7915 188.078 34.1193 187.786 33.3487C187.495 32.5781 187.352 31.7583 187.352 30.8838C187.352 28.8344 187.995 27.2877 189.287 26.2438C190.578 25.2054 192.403 24.5933 194.772 24.413C195.651 24.3528 196.585 24.3091 197.569 24.2763C198.553 24.249 199.427 24.2162 200.185 24.1834V23.4565C200.185 21.0409 198.833 19.8331 196.135 19.8331C195.074 19.8331 194.046 19.9533 193.062 20.1938C192.079 20.4342 191.172 20.7676 190.353 21.1884L189.034 16.1659C190.095 15.5647 191.348 15.0728 192.788 14.6957C194.227 14.3186 195.799 14.1273 197.498 14.1273C200.625 14.1273 203.065 14.9362 204.824 16.5484C206.582 18.1607 207.462 20.5818 207.462 23.8118V36.759H200.454V34.5838L200.471 34.5947ZM196.514 32.4688C197.212 32.4688 197.871 32.3758 198.492 32.1955C199.113 32.0151 199.685 31.7747 200.202 31.4686V28.1621C199.471 28.2222 198.822 28.2933 198.245 28.3643C197.668 28.4409 197.107 28.5064 196.558 28.5666C195.068 28.7469 194.326 29.441 194.326 30.6488C194.326 31.1899 194.513 31.6271 194.898 31.9605C195.277 32.2939 195.816 32.4578 196.514 32.4578V32.4688Z" fill="white"/>
<path d="M210.353 8.11551C210.353 6.9678 210.732 6.00592 211.49 5.21892C212.249 4.43192 213.232 4.04388 214.447 4.04388C215.662 4.04388 216.645 4.43738 217.404 5.21892C218.162 6.00592 218.542 6.9678 218.542 8.11551C218.542 9.26321 218.162 10.2306 217.404 11.0121C216.645 11.7991 215.656 12.1871 214.447 12.1871C213.238 12.1871 212.249 11.7936 211.49 11.0121C210.732 10.2251 210.353 9.26321 210.353 8.11551ZM210.809 36.7699V14.5918H218.091V36.7699H210.809Z" fill="white"/>
<path d="M228.698 29.9821C228.698 30.5559 228.819 30.9986 229.061 31.3156C229.302 31.6326 229.775 31.7911 230.473 31.7911C230.896 31.7911 231.413 31.7474 232.023 31.6544L232.248 36.6333C231.644 36.8137 230.951 36.9558 230.176 37.0651C229.401 37.1689 228.604 37.2235 227.786 37.2235C226.571 37.2235 225.554 37.0432 224.735 36.6825C223.916 36.3218 223.262 35.8408 222.779 35.2342C222.295 34.633 221.943 33.9444 221.735 33.1738C221.52 32.4032 221.416 31.6107 221.416 30.7964V4.81451H228.698V29.9821Z" fill="white"/>
<path d="M249.5 29.5284C249.5 30.7636 249.264 31.8675 248.797 32.8349C248.324 33.8022 247.659 34.6111 246.796 35.256C245.933 35.9064 244.906 36.3928 243.724 36.7262C242.542 37.0595 241.234 37.2235 239.811 37.2235C238.596 37.2235 237.321 37.1087 235.986 36.8847C234.65 36.6606 233.435 36.3163 232.342 35.8681L233.342 30.8455C234.282 31.239 235.321 31.5342 236.458 31.7254C237.596 31.9222 238.591 32.0206 239.443 32.0206C240.294 32.0206 241.086 31.8949 241.74 31.638C242.394 31.3811 242.718 30.9494 242.718 30.3482C242.718 29.8071 242.427 29.4191 241.855 29.195C241.278 28.9709 240.415 28.643 239.261 28.2222C238.321 27.8888 237.442 27.5227 236.623 27.1128C235.804 26.7029 235.101 26.2219 234.507 25.6645C233.914 25.107 233.452 24.4621 233.117 23.7407C232.781 23.0138 232.617 22.1722 232.617 21.2048C232.617 18.7892 233.435 17.0129 235.073 15.8652C236.711 14.7175 238.849 14.1437 241.493 14.1437C242.889 14.1437 244.164 14.2748 245.318 14.5262C246.472 14.7831 247.577 15.2149 248.643 15.816L247.643 20.5708C246.824 20.2101 245.961 19.915 245.048 19.6909C244.136 19.4614 243.18 19.3521 242.18 19.3521C241.3 19.3521 240.624 19.4341 240.152 19.6035C239.679 19.7674 239.448 20.1063 239.448 20.62C239.448 21.1338 239.728 21.5054 240.289 21.7295C240.85 21.9535 241.569 22.2377 242.449 22.5657C243.114 22.8061 243.861 23.1012 244.68 23.451C245.499 23.8008 246.263 24.2435 246.977 24.7846C247.692 25.3256 248.291 25.9814 248.775 26.752C249.258 27.5227 249.506 28.4517 249.506 29.5339L249.5 29.5284Z" fill="white"/>
</svg>
