<svg width="501" height="82" viewBox="0 0 501 82" fill="none" xmlns="http://www.w3.org/2000/svg">
<path d="M98 41C98 37.018 98.7051 33.1279 100.115 29.3297C101.587 25.4703 103.702 21.9784 106.461 18.8541C109.22 15.6685 112.592 13.1568 116.578 11.3189C120.563 9.41982 125.1 8.47027 130.189 8.47027C136.198 8.47027 141.379 9.78739 145.732 12.4216C150.147 15.0559 153.427 18.4865 155.573 22.7135L145.824 29.4216C144.72 26.9712 143.279 25.0414 141.501 23.6324C139.723 22.1622 137.823 21.1514 135.799 20.6C133.776 19.9874 131.783 19.6811 129.821 19.6811C126.633 19.6811 123.843 20.3243 121.452 21.6108C119.122 22.8973 117.16 24.582 115.566 26.6649C113.972 28.7477 112.776 31.0757 111.979 33.6486C111.244 36.2216 110.876 38.7946 110.876 41.3676C110.876 44.2468 111.336 47.0342 112.255 49.7297C113.175 52.364 114.462 54.7225 116.118 56.8054C117.835 58.827 119.858 60.4504 122.188 61.6757C124.579 62.8396 127.185 63.4216 130.005 63.4216C132.029 63.4216 134.083 63.0847 136.167 62.4108C138.252 61.7369 140.183 60.6649 141.961 59.1946C143.739 57.7243 145.119 55.8252 146.1 53.4973L156.492 59.4703C155.205 62.7171 153.09 65.4739 150.147 67.7405C147.265 70.0072 144.015 71.7225 140.398 72.8865C136.78 74.0504 133.194 74.6324 129.637 74.6324C124.978 74.6324 120.716 73.6829 116.854 71.7838C112.991 69.8234 109.649 67.2504 106.829 64.0649C104.07 60.818 101.893 57.2036 100.299 53.2216C98.7664 49.1784 98 45.1045 98 41Z" fill="#FC673C"/>
<path d="M181.287 75C177.363 75 173.837 74.3568 170.71 73.0703C167.583 71.7225 164.916 69.8847 162.709 67.5568C160.563 65.2288 158.908 62.564 157.743 59.5622C156.578 56.5604 155.995 53.4054 155.995 50.0973C155.995 46.7279 156.578 43.5423 157.743 40.5405C158.908 37.5387 160.563 34.8739 162.709 32.5459C164.916 30.218 167.583 28.4108 170.71 27.1243C173.837 25.7766 177.363 25.1027 181.287 25.1027C185.211 25.1027 188.706 25.7766 191.771 27.1243C194.898 28.4108 197.565 30.218 199.773 32.5459C201.98 34.8739 203.635 37.5387 204.739 40.5405C205.904 43.5423 206.486 46.7279 206.486 50.0973C206.486 53.4054 205.904 56.5604 204.739 59.5622C203.635 62.564 201.98 65.2288 199.773 67.5568C197.627 69.8847 194.99 71.7225 191.863 73.0703C188.736 74.3568 185.211 75 181.287 75ZM168.687 50.0973C168.687 52.9153 169.239 55.427 170.342 57.6324C171.446 59.7766 172.948 61.4613 174.849 62.6865C176.75 63.9117 178.896 64.5243 181.287 64.5243C183.617 64.5243 185.732 63.9117 187.633 62.6865C189.533 61.4 191.035 59.6847 192.139 57.5405C193.304 55.3351 193.887 52.8234 193.887 50.0054C193.887 47.2486 193.304 44.7676 192.139 42.5622C191.035 40.3568 189.533 38.6414 187.633 37.4162C185.732 36.191 183.617 35.5784 181.287 35.5784C178.896 35.5784 176.75 36.2216 174.849 37.5081C172.948 38.7333 171.446 40.4486 170.342 42.6541C169.239 44.7982 168.687 47.2793 168.687 50.0973Z" fill="#FC673C"/>
<path d="M232.463 75C228.539 75 225.013 74.3568 221.886 73.0703C218.759 71.7225 216.092 69.8847 213.885 67.5568C211.739 65.2288 210.083 62.564 208.918 59.5622C207.753 56.5604 207.171 53.4054 207.171 50.0973C207.171 46.7279 207.753 43.5423 208.918 40.5405C210.083 37.5387 211.739 34.8739 213.885 32.5459C216.092 30.218 218.759 28.4108 221.886 27.1243C225.013 25.7766 228.539 25.1027 232.463 25.1027C236.387 25.1027 239.881 25.7766 242.947 27.1243C246.074 28.4108 248.741 30.218 250.948 32.5459C253.156 34.8739 254.811 37.5387 255.915 40.5405C257.08 43.5423 257.662 46.7279 257.662 50.0973C257.662 53.4054 257.08 56.5604 255.915 59.5622C254.811 62.564 253.156 65.2288 250.948 67.5568C248.802 69.8847 246.166 71.7225 243.039 73.0703C239.912 74.3568 236.387 75 232.463 75ZM219.863 50.0973C219.863 52.9153 220.415 55.427 221.518 57.6324C222.622 59.7766 224.124 61.4613 226.025 62.6865C227.925 63.9117 230.071 64.5243 232.463 64.5243C234.792 64.5243 236.908 63.9117 238.808 62.6865C240.709 61.4 242.211 59.6847 243.315 57.5405C244.48 55.3351 245.062 52.8234 245.062 50.0054C245.062 47.2486 244.48 44.7676 243.315 42.5622C242.211 40.3568 240.709 38.6414 238.808 37.4162C236.908 36.191 234.792 35.5784 232.463 35.5784C230.071 35.5784 227.925 36.2216 226.025 37.5081C224.124 38.7333 222.622 40.4486 221.518 42.6541C220.415 44.7982 219.863 47.2793 219.863 50.0973Z" fill="#FC673C"/>
<path d="M261.29 7H273.614V58.6432C273.614 60.8486 273.982 62.3495 274.717 63.1459C275.453 63.8811 276.465 64.2486 277.752 64.2486C278.733 64.2486 279.745 64.1261 280.787 63.8811C281.83 63.636 282.749 63.3297 283.546 62.9622L285.202 72.3351C283.546 73.1315 281.615 73.7441 279.408 74.173C277.201 74.6018 275.208 74.8162 273.43 74.8162C269.567 74.8162 266.563 73.8054 264.417 71.7838C262.332 69.7009 261.29 66.7604 261.29 62.9622V7Z" fill="#FC673C"/>
<path d="M332.861 19.9568H311.984V74.0811H299.384V19.9568H278.507V8.83784H332.861V19.9568Z" fill="#FC673C"/>
<path d="M359.287 36.5892C355.547 36.5892 352.205 37.3243 349.262 38.7946C346.319 40.2036 344.204 42.2559 342.916 44.9514V74.0811H330.592V25.9297H341.904V36.2216C343.621 32.9135 345.798 30.3099 348.434 28.4108C351.071 26.5117 353.86 25.4703 356.803 25.2865C357.478 25.2865 357.999 25.2865 358.367 25.2865C358.735 25.2865 359.041 25.3171 359.287 25.3784V36.5892Z" fill="#FC673C"/>
<path d="M357.98 59.8378C357.98 56.7135 358.838 53.9874 360.555 51.6595C362.333 49.2703 364.785 47.4324 367.912 46.1459C371.039 44.8595 374.626 44.2162 378.673 44.2162C380.696 44.2162 382.75 44.3694 384.835 44.6757C386.919 44.982 388.728 45.4721 390.261 46.1459V43.573C390.261 40.5099 389.341 38.1513 387.502 36.4973C385.724 34.8432 383.057 34.0162 379.5 34.0162C376.864 34.0162 374.35 34.4757 371.959 35.3946C369.568 36.3135 367.054 37.6613 364.417 39.4378L360.463 31.3513C363.651 29.2685 366.901 27.7063 370.212 26.6649C373.584 25.6234 377.109 25.1027 380.788 25.1027C387.655 25.1027 392.989 26.818 396.791 30.2486C400.653 33.6793 402.585 38.5802 402.585 44.9514V60.2973C402.585 61.5838 402.799 62.5027 403.229 63.0541C403.719 63.6054 404.485 63.9423 405.528 64.0649V74.0811C404.424 74.2649 403.412 74.418 402.493 74.5405C401.634 74.6631 400.899 74.7243 400.285 74.7243C397.833 74.7243 395.963 74.173 394.675 73.0703C393.449 71.9676 392.683 70.6198 392.376 69.027L392.1 66.5459C390.016 69.2414 387.41 71.3243 384.283 72.7946C381.156 74.2649 377.968 75 374.718 75C371.53 75 368.648 74.3568 366.073 73.0703C363.559 71.7225 361.566 69.9153 360.095 67.6486C358.685 65.3207 357.98 62.7171 357.98 59.8378ZM387.962 62.3189C388.636 61.5838 389.188 60.8486 389.617 60.1135C390.046 59.3784 390.261 58.7045 390.261 58.0919V53.2216C388.789 52.609 387.195 52.1495 385.478 51.8432C383.762 51.4757 382.137 51.2919 380.604 51.2919C377.416 51.2919 374.779 51.9964 372.695 53.4054C370.671 54.7531 369.66 56.5604 369.66 58.827C369.66 60.0522 369.997 61.2162 370.671 62.3189C371.346 63.4216 372.327 64.3099 373.614 64.9838C374.902 65.6577 376.435 65.9946 378.213 65.9946C380.052 65.9946 381.861 65.6577 383.639 64.9838C385.417 64.2486 386.858 63.3604 387.962 62.3189Z" fill="#FC673C"/>
<path d="M409.503 74.0811V25.9297H421.826V74.0811H409.503ZM409.503 19.2216V7H421.826V19.2216H409.503Z" fill="#FC673C"/>
<path d="M428.253 7H440.577V58.6432C440.577 60.8486 440.945 62.3495 441.681 63.1459C442.417 63.8811 443.428 64.2486 444.716 64.2486C445.697 64.2486 446.709 64.1261 447.751 63.8811C448.793 63.636 449.713 63.3297 450.51 62.9622L452.165 72.3351C450.51 73.1315 448.579 73.7441 446.371 74.173C444.164 74.6018 442.171 74.8162 440.393 74.8162C436.531 74.8162 433.526 73.8054 431.38 71.7838C429.296 69.7009 428.253 66.7604 428.253 62.9622V7Z" fill="#FC673C"/>
<path d="M470.686 75C466.578 75 462.654 74.3261 458.914 72.9784C455.174 71.6306 451.955 69.6396 449.258 67.0054L453.672 59.0108C456.554 61.3387 459.374 63.0541 462.133 64.1568C464.954 65.2595 467.651 65.8108 470.227 65.8108C472.618 65.8108 474.518 65.382 475.929 64.5243C477.4 63.6667 478.136 62.3802 478.136 60.6649C478.136 59.5009 477.737 58.6126 476.94 58C476.143 57.3261 474.978 56.7441 473.446 56.2541C471.974 55.764 470.165 55.2126 468.019 54.6C464.463 53.436 461.49 52.3027 459.098 51.2C456.707 50.0973 454.898 48.7189 453.672 47.0649C452.507 45.3495 451.925 43.1748 451.925 40.5405C451.925 37.3549 452.722 34.6288 454.316 32.3622C455.971 30.0342 458.24 28.227 461.122 26.9405C464.065 25.6541 467.498 25.0108 471.422 25.0108C474.856 25.0108 478.105 25.5622 481.171 26.6649C484.237 27.7063 487.026 29.4216 489.54 31.8108L484.574 39.6216C482.121 37.7225 479.791 36.3441 477.584 35.4865C475.377 34.5676 473.139 34.1081 470.87 34.1081C469.583 34.1081 468.357 34.2613 467.192 34.5676C466.088 34.8739 465.168 35.3946 464.433 36.1297C463.758 36.8036 463.421 37.7838 463.421 39.0703C463.421 40.2342 463.727 41.1531 464.341 41.827C465.015 42.4396 465.996 42.991 467.284 43.4811C468.632 43.9712 470.257 44.5225 472.158 45.1351C476.021 46.2378 479.27 47.3712 481.907 48.5351C484.604 49.6991 486.628 51.1387 487.977 52.8541C489.326 54.5081 490 56.8054 490 59.7459C490 64.5243 488.253 68.2613 484.758 70.9568C481.263 73.6523 476.572 75 470.686 75Z" fill="#FC673C"/>
<rect width="82" height="82" rx="41" fill="#4A90E2"/>
<path d="M36.75 32.9266L37.2836 32.1771L55.3858 25.1754L48.3986 43.0184L48.0764 43.388L36.75 32.9266Z" fill="#FF6B6B"/>
<path d="M48.1371 43.2957L47.6035 44.0452L29.4912 51.0366L36.4884 33.1936L36.8207 32.824L48.1371 43.2957Z" fill="#FFD166"/>
<path d="M41 15.6902C41 17.6232 39.422 19.1604 37.514 19.4703C27.2539 21.1369 19.4209 30.0384 19.4209 40.7693L19.4277 41.3259C19.7185 52.8012 28.968 62.05 40.4434 62.3406L41 62.3484C52.7314 62.3483 62.2758 52.9861 62.5713 41.3259L62.5791 40.7693C62.5791 39.9895 63.191 39.3298 63.9708 39.3298H68.1029C68.9095 39.3298 69.5791 39.9627 69.5791 40.7693C69.5789 56.5528 56.7835 69.3483 41 69.3484C25.2165 69.3483 12.4211 56.5528 12.4209 40.7693C12.4209 26.1682 23.3707 14.1245 37.5066 12.4016C39.4254 12.1677 41 13.7572 41 15.6902Z" fill="#FAFAFA"/>
</svg>
