<svg width="181" height="30" viewBox="0 0 181 30" fill="none" xmlns="http://www.w3.org/2000/svg">
<g clip-path="url(#clip0_1060_4421)">
<path d="M12.7898 12.888L13.018 12.573L20.7608 9.63037L17.7722 17.1293L17.6344 17.2846L12.7898 12.888Z" fill="#FDAE1B"/>
<path d="M17.6603 17.2458L17.4321 17.5607L9.68494 20.499L12.6778 13.0001L12.82 12.8448L17.6603 17.2458Z" fill="#FC673C"/>
<path d="M29.8301 13.1814L26.6003 13.3151C26.6778 13.8674 26.7209 14.4283 26.7209 15.0022C26.7209 21.5044 21.4585 26.7769 14.9689 26.7769C8.47919 26.7769 3.21684 21.5044 3.21684 15.0022C3.21684 8.49993 8.4835 3.22738 14.9732 3.22738C15.4985 3.22738 16.0153 3.26622 16.5234 3.33094V0.081979C16.0153 0.0302028 15.4985 0 14.9732 0C6.70498 0 0 6.71796 0 15.0022C0 23.2864 6.70498 30.0043 14.9732 30.0043C23.2413 30.0043 29.9463 23.2864 29.9463 15.0022C29.9463 14.3852 29.9033 13.7811 29.8344 13.1814H29.8301Z" fill="#4A90E2"/>
<path d="M47.9598 2.43347C49.1957 2.43347 50.4402 2.54997 51.689 2.78728C52.9379 3.02458 54.0145 3.36544 54.9188 3.81417L54.0618 8.1116C53.347 7.82683 52.5331 7.58089 51.6201 7.3781C50.7029 7.17531 49.7943 7.07607 48.8899 7.07607C46.4655 7.07607 44.5491 7.71033 43.1496 8.97885C41.7457 10.2474 41.0438 12.176 41.0438 14.7605C41.0438 17.345 41.7457 19.2737 43.1496 20.5422C44.5534 21.8107 46.4655 22.445 48.8899 22.445C49.7943 22.445 50.7029 22.3457 51.6201 22.143C52.5331 21.9402 53.3513 21.6942 54.0618 21.4095L54.9188 25.7069C54.0145 26.1556 52.9379 26.5008 51.689 26.7338C50.4402 26.9711 49.2 27.0876 47.9598 27.0876C45.8669 27.0876 44.0238 26.7769 42.4304 26.1599C40.8371 25.5386 39.5064 24.6843 38.4341 23.5884C37.3661 22.4924 36.5566 21.1937 36.0096 19.6922C35.4627 18.1907 35.1871 16.5468 35.1871 14.7605C35.1871 12.9742 35.4584 11.3304 36.0096 9.82884C36.5566 8.32733 37.3661 7.02861 38.4341 5.93268C39.5021 4.83675 40.8371 3.97813 42.4304 3.36113C44.0238 2.73981 45.8669 2.43347 47.9598 2.43347Z" fill="#4A90E2"/>
<path d="M74.2845 17.9059C74.2845 19.1917 74.0821 20.3912 73.6773 21.4958C73.2725 22.6046 72.6782 23.5668 71.8944 24.3909C71.1107 25.215 70.1331 25.8579 68.9704 26.3196C67.8034 26.7856 66.4727 27.0186 64.9741 27.0186C63.4755 27.0186 62.1449 26.7856 60.9779 26.3196C59.8108 25.8536 58.8376 25.2107 58.0538 24.3909C57.2701 23.5711 56.6758 22.6046 56.271 21.4958C55.8662 20.3869 55.6638 19.1917 55.6638 17.9059C55.6638 16.6202 55.8662 15.4207 56.271 14.3161C56.6758 13.2073 57.2701 12.2451 58.0538 11.421C58.8376 10.5969 59.8151 9.95399 60.9779 9.49231C62.1406 9.02633 63.4755 8.79333 64.9741 8.79333C66.4727 8.79333 67.8034 9.02633 68.9704 9.49231C70.1331 9.9583 71.1107 10.6012 71.8944 11.421C72.6782 12.2408 73.2725 13.2073 73.6773 14.3161C74.0821 15.425 74.2845 16.6202 74.2845 17.9059ZM68.5742 17.9059C68.5742 17.2846 68.514 16.6849 68.3977 16.1024C68.2771 15.5199 68.0833 14.9935 67.8077 14.5319C67.5321 14.0659 67.1661 13.6991 66.701 13.423C66.2359 13.1512 65.6588 13.0131 64.9698 13.0131C64.2808 13.0131 63.7038 13.1512 63.2387 13.423C62.7736 13.6991 62.4076 14.0659 62.132 14.5319C61.8563 14.9979 61.6626 15.5199 61.542 16.1024C61.4214 16.6849 61.3654 17.2889 61.3654 17.9059C61.3654 18.5229 61.4257 19.127 61.542 19.7095C61.6626 20.292 61.8563 20.8184 62.132 21.28C62.4033 21.746 62.7736 22.1128 63.2387 22.3889C63.7038 22.665 64.2808 22.7988 64.9698 22.7988C65.6588 22.7988 66.2359 22.6607 66.701 22.3889C67.1661 22.1171 67.5321 21.746 67.8077 21.28C68.079 20.814 68.2771 20.292 68.3977 19.7095C68.5183 19.127 68.5742 18.5229 68.5742 17.9059Z" fill="#4A90E2"/>
<path d="M93.3271 17.9059C93.3271 19.1917 93.1247 20.3912 92.7199 21.4958C92.3151 22.6046 91.7208 23.5668 90.937 24.3909C90.1533 25.215 89.1757 25.8579 88.013 26.3196C86.846 26.7856 85.5154 27.0186 84.0167 27.0186C82.5181 27.0186 81.1875 26.7856 80.0205 26.3196C78.8534 25.8536 77.8802 25.2107 77.0964 24.3909C76.3127 23.5711 75.7184 22.6046 75.3136 21.4958C74.9088 20.3869 74.7064 19.1917 74.7064 17.9059C74.7064 16.6202 74.9088 15.4207 75.3136 14.3161C75.7184 13.2073 76.3127 12.2451 77.0964 11.421C77.8802 10.5969 78.8577 9.95399 80.0205 9.49231C81.1832 9.02633 82.5181 8.79333 84.0167 8.79333C85.5154 8.79333 86.846 9.02633 88.013 9.49231C89.1757 9.9583 90.1533 10.6012 90.937 11.421C91.7208 12.2408 92.3151 13.2073 92.7199 14.3161C93.1247 15.425 93.3271 16.6202 93.3271 17.9059ZM87.6212 17.9059C87.6212 17.2846 87.5609 16.6849 87.4446 16.1024C87.324 15.5199 87.1302 14.9935 86.8546 14.5319C86.579 14.0659 86.213 13.6991 85.7479 13.423C85.2828 13.1512 84.7058 13.0131 84.0167 13.0131C83.3277 13.0131 82.7507 13.1512 82.2856 13.423C81.8205 13.6991 81.4545 14.0659 81.1789 14.5319C80.9033 14.9979 80.7095 15.5199 80.5889 16.1024C80.4683 16.6849 80.4123 17.2889 80.4123 17.9059C80.4123 18.5229 80.4726 19.127 80.5889 19.7095C80.7095 20.292 80.9033 20.8184 81.1789 21.28C81.4502 21.746 81.8205 22.1128 82.2856 22.3889C82.7507 22.665 83.3277 22.7988 84.0167 22.7988C84.7058 22.7988 85.2828 22.6607 85.7479 22.3889C86.213 22.1171 86.579 21.746 86.8546 21.28C87.1259 20.814 87.324 20.292 87.4446 19.7095C87.5652 19.127 87.6212 18.5229 87.6212 17.9059Z" fill="#4A90E2"/>
<path d="M100.428 21.3016C100.428 21.7547 100.523 22.1041 100.712 22.3544C100.902 22.6047 101.272 22.7298 101.819 22.7298C102.151 22.7298 102.556 22.6953 103.034 22.6219L103.21 26.5526C102.732 26.695 102.194 26.8072 101.587 26.8934C100.979 26.9754 100.355 27.0186 99.7134 27.0186C98.7617 27.0186 97.965 26.8762 97.3234 26.5914C96.6817 26.3067 96.1693 25.927 95.7903 25.448C95.4113 24.9734 95.1357 24.4298 94.9678 23.8214C94.7998 23.213 94.718 22.5874 94.718 21.9445V1.4325H100.424V21.3016H100.428Z" fill="#4A90E2"/>
<path d="M121.254 2.86066V7.50757H114.867V26.6605H109.019V7.50757H102.633V2.86066H121.249H121.254Z" fill="#FC673C"/>
<path d="M132.386 14.0831H131.71C129.449 14.0831 127.86 14.657 126.93 15.8004V26.6648H121.224V9.15146H126.753V12.0811C127.085 11.1276 127.597 10.3768 128.286 9.82887C128.975 9.2809 129.879 9.00476 130.995 9.00476C131.326 9.00476 131.606 9.02202 131.834 9.05654C132.058 9.09105 132.291 9.14715 132.532 9.21618L132.39 14.0745L132.386 14.0831Z" fill="#FC673C"/>
<path d="M142.583 24.9432C142.036 25.4911 141.291 25.9744 140.352 26.3886C139.414 26.8028 138.384 27.0142 137.265 27.0142C136.481 27.0142 135.779 26.8848 135.159 26.6216C134.539 26.3584 134.022 26.0046 133.609 25.5515C133.191 25.0985 132.872 24.5678 132.644 23.9594C132.416 23.351 132.304 22.7038 132.304 22.0135C132.304 20.3955 132.808 19.1744 133.82 18.3503C134.832 17.5305 136.261 17.0473 138.117 16.9049C138.806 16.8574 139.538 16.8229 140.309 16.797C141.08 16.7755 141.765 16.7496 142.359 16.7237V16.1498C142.359 14.2427 141.3 13.2892 139.185 13.2892C138.354 13.2892 137.549 13.3841 136.778 13.574C136.007 13.7638 135.297 14.027 134.655 14.3592L133.622 10.394C134.453 9.91943 135.435 9.53111 136.563 9.23339C137.691 8.93568 138.923 8.78467 140.253 8.78467C142.704 8.78467 144.616 9.42324 145.994 10.6961C147.372 11.9689 148.061 13.8803 148.061 16.4303V26.6518H142.57V24.9345L142.583 24.9432ZM139.483 23.2647C140.029 23.2647 140.546 23.1914 141.033 23.049C141.519 22.9066 141.967 22.7168 142.372 22.4752V19.8648C141.799 19.9122 141.291 19.9683 140.839 20.0244C140.387 20.0848 139.948 20.1366 139.517 20.1841C138.35 20.3264 137.769 20.8744 137.769 21.828C137.769 22.2551 137.915 22.6003 138.216 22.8635C138.514 23.1267 138.936 23.2561 139.483 23.2561V23.2647Z" fill="#FC673C"/>
<path d="M150.326 4.03854C150.326 3.13245 150.623 2.37307 151.217 1.75175C151.812 1.13044 152.582 0.824097 153.534 0.824097C154.486 0.824097 155.257 1.13475 155.851 1.75175C156.445 2.37307 156.742 3.13245 156.742 4.03854C156.742 4.94462 156.445 5.70832 155.851 6.32532C155.257 6.94663 154.482 7.25298 153.534 7.25298C152.587 7.25298 151.812 6.94232 151.217 6.32532C150.623 5.704 150.326 4.94462 150.326 4.03854ZM150.683 26.6604V9.15144H156.389V26.6604H150.683Z" fill="#FC673C"/>
<path d="M164.7 21.3016C164.7 21.7547 164.795 22.1041 164.985 22.3544C165.174 22.6047 165.544 22.7298 166.091 22.7298C166.423 22.7298 166.828 22.6953 167.306 22.6219L167.482 26.5526C167.009 26.695 166.466 26.8072 165.859 26.8934C165.252 26.9754 164.627 27.0186 163.986 27.0186C163.034 27.0186 162.237 26.8762 161.596 26.5914C160.954 26.3067 160.441 25.927 160.062 25.448C159.684 24.9734 159.408 24.4298 159.244 23.8214C159.076 23.213 158.995 22.5874 158.995 21.9445V1.4325H164.7V21.3016Z" fill="#FC673C"/>
<path d="M181 20.9434C181 21.9186 180.815 22.7901 180.449 23.5538C180.078 24.3175 179.557 24.9561 178.881 25.4652C178.205 25.9787 177.4 26.3627 176.474 26.6259C175.548 26.8891 174.523 27.0185 173.408 27.0185C172.456 27.0185 171.457 26.9279 170.411 26.751C169.364 26.5741 168.413 26.3023 167.556 25.9485L168.339 21.9833C169.076 22.2939 169.89 22.5269 170.781 22.6779C171.672 22.8333 172.452 22.9109 173.119 22.9109C173.787 22.9109 174.407 22.8117 174.919 22.6089C175.432 22.4061 175.686 22.0653 175.686 21.5906C175.686 21.1635 175.458 20.8572 175.01 20.6802C174.558 20.5033 173.882 20.2445 172.977 19.9122C172.241 19.649 171.552 19.36 170.91 19.0364C170.269 18.7128 169.717 18.3331 169.252 17.893C168.787 17.4529 168.425 16.9437 168.163 16.3742C167.9 15.8003 167.771 15.1359 167.771 14.3722C167.771 12.4651 168.413 11.0628 169.696 10.1567C170.979 9.25065 172.654 8.79761 174.726 8.79761C175.819 8.79761 176.818 8.90116 177.723 9.09964C178.627 9.30243 179.493 9.64329 180.328 10.1179L179.544 13.8717C178.903 13.5869 178.227 13.3539 177.512 13.177C176.797 12.9958 176.048 12.9095 175.264 12.9095C174.575 12.9095 174.045 12.9742 173.675 13.108C173.305 13.2374 173.124 13.5049 173.124 13.9105C173.124 14.3161 173.343 14.6095 173.783 14.7864C174.222 14.9633 174.786 15.1877 175.475 15.4465C175.996 15.6364 176.582 15.8694 177.223 16.1455C177.865 16.4217 178.464 16.7711 179.023 17.1983C179.583 17.6255 180.053 18.1432 180.432 18.7516C180.81 19.36 181.004 20.0935 181.004 20.9478L181 20.9434Z" fill="#FC673C"/>
</g>
<defs>
<clipPath id="clip0_1060_4421">
<rect width="181" height="30" fill="white"/>
</clipPath>
</defs>
</svg>
